<svg xmlns="http://www.w3.org/2000/svg" width="23" height="23" viewBox="0 0 23 23"><defs><style>.a{fill:#9d98fe;}</style></defs><g transform="translate(0.389 -0.102)"><path class="a" d="M20.535,23H10.678a.822.822,0,0,1-.822-.822v-11.5a.822.822,0,0,1,.822-.822h11.5a.822.822,0,0,1,.822.822v3.286a.822.822,0,0,1-1.643,0V11.5H11.5v9.857h9.035a.822.822,0,0,0,.822-.822V17.249a.822.822,0,1,1,1.643,0v3.286A2.467,2.467,0,0,1,20.535,23ZM7.392,23H2.465A2.467,2.467,0,0,1,0,20.535V10.678a.822.822,0,0,1,.822-.822H7.392a.822.822,0,0,1,.822.822v11.5A.822.822,0,0,1,7.392,23ZM1.643,11.5v9.035a.822.822,0,0,0,.822.822H6.571V11.5ZM22.178,8.214H.822A.822.822,0,0,1,0,7.392V2.465A2.467,2.467,0,0,1,2.465,0H13.143a.822.822,0,1,1,0,1.643H2.465a.822.822,0,0,0-.822.822V6.571H21.357V2.465a.822.822,0,0,0-.822-.822H16.428a.822.822,0,1,1,0-1.643h4.108A2.467,2.467,0,0,1,23,2.465V7.392A.822.822,0,0,1,22.178,8.214Z" transform="translate(-0.389 0.102)"/></g></svg>