<svg xmlns="http://www.w3.org/2000/svg" width="25" height="30" viewBox="0 0 25 30"><defs><style>.a{opacity:0.603;}.b{fill:#fff;opacity:0.8;}</style></defs><g class="a" transform="translate(0.435 -0.106)"><path class="b" d="M21.592,30H3.408A3.37,3.37,0,0,1,0,26.69V6.525a3.37,3.37,0,0,1,3.408-3.31H4.545V2.142A2.213,2.213,0,0,1,6.818,0H18.182a2.213,2.213,0,0,1,2.273,2.142V3.214h1.137A3.37,3.37,0,0,1,25,6.525v4.189a1.106,1.106,0,0,1-1.136,1.072,1.168,1.168,0,0,1-.8-.313,1.037,1.037,0,0,1-.334-.759V6.525a1.158,1.158,0,0,0-1.136-1.168H20.455A2.214,2.214,0,0,1,18.182,7.5H6.818A2.213,2.213,0,0,1,4.545,5.357H3.408A1.158,1.158,0,0,0,2.273,6.525V26.69a1.158,1.158,0,0,0,1.136,1.168H21.592a1.158,1.158,0,0,0,1.136-1.168V13.928a1.138,1.138,0,0,1,2.273,0V26.69A3.37,3.37,0,0,1,21.592,30ZM6.818,2.142V5.357H18.182V2.142Zm12.5,22.5H5.682a1.073,1.073,0,1,1,0-2.142H19.318a1.073,1.073,0,1,1,0,2.142Zm0-4.286H5.682a1.073,1.073,0,1,1,0-2.142H19.318a1.073,1.073,0,1,1,0,2.142Zm0-4.285H5.682a1.074,1.074,0,1,1,0-2.144H19.318a1.074,1.074,0,1,1,0,2.144ZM12.5,11.786H5.682a1.073,1.073,0,1,1,0-2.142H12.5a1.073,1.073,0,1,1,0,2.142Z" transform="translate(-0.435 0.106)"/></g></svg>