<svg xmlns="http://www.w3.org/2000/svg" width="30" height="20" viewBox="0 0 30 20"><defs><style>.a{opacity:0.603;}.b{fill:#fff;opacity:0.6;}</style></defs><g class="a" transform="translate(-0.428 0.282)"><path class="b" d="M26.786,20H10.715A3.117,3.117,0,0,1,7.5,17V3a3.117,3.117,0,0,1,3.214-3H21.428A1.039,1.039,0,0,1,22.5,1a1.039,1.039,0,0,1-1.072,1H19.285V6.13l1.554-1a1.135,1.135,0,0,1,1.179,0l1.554,1V1a1.038,1.038,0,0,1,1.071-1h2.144A3.117,3.117,0,0,1,30,3V17A3.117,3.117,0,0,1,26.786,20ZM10.715,2A1.039,1.039,0,0,0,9.643,3V17a1.039,1.039,0,0,0,1.072,1H26.786a1.038,1.038,0,0,0,1.071-1V3a1.038,1.038,0,0,0-1.071-1H25.714V8a1,1,0,0,1-.566.877,1.136,1.136,0,0,1-.506.119,1.122,1.122,0,0,1-.589-.165L21.428,7.2,18.782,8.83a1.125,1.125,0,0,1-.582.16,1.142,1.142,0,0,1-.49-.11A.993.993,0,0,1,17.143,8V2ZM5.358,18H1.072a1,1,0,1,1,0-2H5.358a1,1,0,1,1,0,2Zm11.785-2H12.857a1,1,0,1,1,0-2h4.286a1,1,0,1,1,0,2Zm0-3H12.857a1,1,0,1,1,0-2h4.286a1,1,0,1,1,0,2ZM5.358,11H1.072a1,1,0,1,1,0-2H5.358a1,1,0,1,1,0,2Zm0-7H1.072A1.039,1.039,0,0,1,0,3,1.039,1.039,0,0,1,1.072,2H5.358A1.038,1.038,0,0,1,6.428,3,1.038,1.038,0,0,1,5.358,4Z" transform="translate(0.428 -0.282)"/></g></svg>