<svg xmlns="http://www.w3.org/2000/svg" width="31" height="25" viewBox="0 0 31 25"><defs><style>.a{opacity:0.603;}.b{fill:#fff;opacity:0.6;}</style></defs><g class="a" transform="translate(-0.428 0.14)"><path class="b" d="M25.464,25H3.321A3.37,3.37,0,0,1,0,21.591V3.409A3.37,3.37,0,0,1,3.321,0H25.464a3.37,3.37,0,0,1,3.321,3.409V5.682h1.107A1.124,1.124,0,0,1,31,6.819V18.181a1.124,1.124,0,0,1-1.108,1.137H28.785v2.272A3.37,3.37,0,0,1,25.464,25ZM3.321,2.272A1.123,1.123,0,0,0,2.215,3.409V21.591a1.123,1.123,0,0,0,1.107,1.137H25.464a1.123,1.123,0,0,0,1.107-1.137V19.318H18.821A3.37,3.37,0,0,1,15.5,15.909V9.091a3.37,3.37,0,0,1,3.321-3.409h5.536a1.137,1.137,0,0,1,0,2.272H18.821a1.123,1.123,0,0,0-1.107,1.137v6.817a1.123,1.123,0,0,0,1.107,1.137h9.964V7.954H27.679a1.123,1.123,0,0,1-1.108-1.136V3.409a1.123,1.123,0,0,0-1.107-1.137ZM22.143,15.909a3.257,3.257,0,0,1-2.349-1,3.465,3.465,0,0,1-.72-3.715,3.312,3.312,0,0,1,3.069-2.1,3.424,3.424,0,0,1,1.271,6.558A3.229,3.229,0,0,1,22.143,15.909Zm0-4.546A1.137,1.137,0,1,0,23.249,12.5,1.123,1.123,0,0,0,22.143,11.364Z" transform="translate(0.428 -0.14)"/></g></svg>