<svg xmlns="http://www.w3.org/2000/svg" width="32.374" height="32.374" viewBox="0 0 32.374 32.374"><defs><style>.a{opacity:0.596;}.b{fill:#fff;}</style></defs><g class="a"><path class="b" d="M13.707,27.415a13.707,13.707,0,0,1-9.692-23.4A13.707,13.707,0,1,1,23.4,23.4,13.617,13.617,0,0,1,13.707,27.415Zm0-24.8A11.092,11.092,0,1,0,24.8,13.707,11.1,11.1,0,0,0,13.707,2.615Z" transform="translate(0 0)"/><path class="b" d="M10.829,8.98l-8.6-8.6A1.308,1.308,0,0,0,.383,2.232l8.6,8.6A1.308,1.308,0,0,0,10.829,8.98Z" transform="translate(21.162 21.162)"/></g></svg>