<svg xmlns="http://www.w3.org/2000/svg" width="35" height="30.691" viewBox="0 0 35 30.691"><defs><style>.a{opacity:0.601;}.b{fill:none;stroke:#fff;}</style></defs><g class="a" transform="translate(0.5 -32.105)"><ellipse class="b" cx="5.231" cy="5.885" rx="5.231" ry="5.885" transform="translate(11.769 32.605)"/><circle class="b" cx="3.923" cy="3.923" r="3.923" transform="translate(24.846 36.528)"/><circle class="b" cx="3.923" cy="3.923" r="3.923" transform="translate(1.308 36.528)"/><path class="b" d="M8.911,241.557c-1.438-1.178-2.74-1.022-4.4-1.022A4.5,4.5,0,0,0,0,245.017v7.252a1.951,1.951,0,0,0,1.953,1.946c4.65,0,4.09.084,4.09-.2C6.043,248.875,5.434,245.107,8.911,241.557Z" transform="translate(0 -194.083)"/><path class="b" d="M130.785,239.928c-2.9-.242-5.427,0-7.6,1.8-3.643,2.918-2.942,6.847-2.942,11.653a2.329,2.329,0,0,0,2.326,2.326c14.017,0,14.575.452,15.406-1.389.273-.622.2-.425.2-6.38C138.168,243.208,134.073,239.928,130.785,239.928Z" transform="translate(-112.204 -193.45)"/><path class="b" d="M382.212,240.536c-1.671,0-2.966-.154-4.4,1.022,3.451,3.523,2.868,7.035,2.868,12.457,0,.286-.465.2,4.02.2a2.021,2.021,0,0,0,2.023-2.015v-7.183A4.5,4.5,0,0,0,382.212,240.536Z" transform="translate(-352.721 -194.085)"/></g></svg>