<svg xmlns="http://www.w3.org/2000/svg" width="13.246" height="16.219" viewBox="0 0 13.246 16.219"><defs><style>.a{fill:#fff;}</style></defs><g transform="translate(0)"><path class="a" d="M13.2,3.625l-.358-1.073a1,1,0,0,0-.948-.684H8.889V.888A.889.889,0,0,0,8,0H5.245a.889.889,0,0,0-.888.888v.98H1.347A1,1,0,0,0,.4,2.552L.041,3.625A.8.8,0,0,0,.8,4.683h.374L2,14.871a1.474,1.474,0,0,0,1.461,1.348h6.49a1.474,1.474,0,0,0,1.46-1.348l.824-10.187h.207A.8.8,0,0,0,13.2,3.625ZM5.307.95H7.938v.918H5.307Zm5.157,13.844a.518.518,0,0,1-.513.475H3.462a.518.518,0,0,1-.513-.475L2.131,4.683h9.152ZM1.007,3.733l.294-.88a.049.049,0,0,1,.047-.034H11.9a.049.049,0,0,1,.047.034l.294.88Zm0,0" transform="translate(0)"/><path class="a" d="M268.746,175.091h.025a.475.475,0,0,0,.474-.45l.446-8.565a.475.475,0,0,0-.949-.049l-.446,8.565A.475.475,0,0,0,268.746,175.091Zm0,0" transform="translate(-259.797 -160.331)"/><path class="a" d="M106.262,174.645a.475.475,0,0,0,.474.449h.026a.475.475,0,0,0,.449-.5l-.467-8.565a.475.475,0,0,0-.949.052Zm0,0" transform="translate(-102.443 -160.334)"/><path class="a" d="M194.729,175.094a.475.475,0,0,0,.475-.475v-8.565a.475.475,0,0,0-.95,0v8.565A.475.475,0,0,0,194.729,175.094Zm0,0" transform="translate(-188.101 -160.333)"/></g></svg>