<svg xmlns="http://www.w3.org/2000/svg" width="34.626" height="35.297" viewBox="0 0 34.626 35.297"><defs><style>.a{opacity:0.603;}.b{fill:#fff;}</style></defs><g class="a" transform="translate(-0.148)"><path class="b" d="M67.611,108.759H64.148V105.3h3.463ZM65.3,107.605h1.154v-1.154H65.3Zm0,0" transform="translate(-59.383 -97.701)"/><path class="b" d="M123.611,108.759h-3.463V105.3h3.463Zm-2.308-1.154h1.154v-1.154H121.3Zm0,0" transform="translate(-111.343 -97.701)"/><path class="b" d="M67.611,164.76H64.148V161.3h3.463ZM65.3,163.605h1.154v-1.154H65.3Zm0,0" transform="translate(-59.383 -149.661)"/><path class="b" d="M123.611,164.76h-3.463V161.3h3.463Zm-2.308-1.154h1.154v-1.154H121.3Zm0,0" transform="translate(-111.343 -149.661)"/><path class="b" d="M179.611,108.759h-3.463V105.3h3.463Zm-2.308-1.154h1.154v-1.154H177.3Zm0,0" transform="translate(-163.304 -97.701)"/><path class="b" d="M179.611,164.76h-3.463V161.3h3.463Zm-2.308-1.154h1.154v-1.154H177.3Zm0,0" transform="translate(-163.304 -149.661)"/><path class="b" d="M33.043,14.521V11.059H30.735V6.442H29.42L27.272,0,25.125,6.442H23.81v4.617H21.5v3.463H19.77v5.771H18.616v-15H16.884V2.979H14.576V.671H6.5V2.979H4.188V5.287H2.457v15H.148v15H34.775V14.521ZM3.611,6.442H5.342V4.133H7.651V1.825h5.771V4.133H15.73V6.442h1.731v13.85H3.611ZM26.7,34.143H1.3v-12.7H26.7Zm6.925,0H27.849V20.292H20.924V15.675h1.731V12.213h2.308V7.6h.993L27.272,3.65,28.587,7.6h.993v4.617h2.308v3.463H33.62Zm0,0"/><path class="b" d="M64.148,220.759h3.463V217.3H64.148Zm1.154-2.308h1.154v1.154H65.3Zm0,0" transform="translate(-59.383 -201.622)"/><path class="b" d="M120.148,220.759h3.463V217.3h-3.463Zm1.154-2.308h1.154v1.154H121.3Zm0,0" transform="translate(-111.343 -201.622)"/><path class="b" d="M176.148,220.759h3.463V217.3h-3.463Zm1.154-2.308h1.154v1.154H177.3Zm0,0" transform="translate(-163.304 -201.622)"/><path class="b" d="M34.457,313.3v.577a1.731,1.731,0,0,1-1.731,1.731h-.577v5.771h.577a1.731,1.731,0,0,1,1.731,1.731v.577H52.924v-.577a1.731,1.731,0,0,1,1.731-1.731h.577v-5.771h-.577a1.731,1.731,0,0,1-1.731-1.731V313.3Zm19.622,3.4v3.578a2.892,2.892,0,0,0-2.251,2.251H35.553A2.892,2.892,0,0,0,33.3,320.28V316.7a2.893,2.893,0,0,0,2.251-2.251H51.828A2.893,2.893,0,0,0,54.078,316.7Zm0,0" transform="translate(-29.692 -290.696)"/><path class="b" d="M155.034,345.3a2.886,2.886,0,1,0,2.886,2.886A2.885,2.885,0,0,0,155.034,345.3Zm0,4.617a1.731,1.731,0,1,1,1.731-1.731A1.731,1.731,0,0,1,155.034,349.914Zm0,0" transform="translate(-141.035 -320.388)"/><path class="b" d="M248.148,377.3h2.308v1.154h-2.308Zm0,0" transform="translate(-230.11 -350.079)"/><path class="b" d="M104.148,377.3h2.308v1.154h-2.308Zm0,0" transform="translate(-96.498 -350.079)"/><path class="b" d="M368.148,169.3H369.3v6.925h-1.154Zm0,0" transform="translate(-341.453 -157.084)"/><path class="b" d="M400.148,201.3H401.3v18.467h-1.154Zm0,0" transform="translate(-371.145 -186.776)"/><path class="b" d="M432.148,233.3H433.3v16.159h-1.154Zm0,0" transform="translate(-400.836 -216.467)"/><path class="b" d="M336.148,201.3H337.3v4.617h-1.154Zm0,0" transform="translate(-311.762 -186.776)"/><path class="b" d="M304.148,233.3H305.3v2.308h-1.154Zm0,0" transform="translate(-282.07 -216.467)"/></g></svg>