<svg xmlns="http://www.w3.org/2000/svg" width="16" height="15.999" viewBox="0 0 16 15.999"><defs><style>.a{fill:#fff;}</style></defs><g transform="translate(0 -0.501)"><path class="a" d="M12.667,91.15a.666.666,0,0,0-.667.667V97.15a.667.667,0,0,1-.667.667H2a.667.667,0,0,1-.667-.667V87.816A.667.667,0,0,1,2,87.15H7.333a.667.667,0,0,0,0-1.333H2a2,2,0,0,0-2,2V97.15a2,2,0,0,0,2,2h9.333a2,2,0,0,0,2-2V91.816A.666.666,0,0,0,12.667,91.15Zm0,0" transform="translate(0 -82.649)"/><path class="a" d="M182.377,73.536a.337.337,0,0,0-.091.17l-.471,2.357a.333.333,0,0,0,.327.4.317.317,0,0,0,.065-.007l2.357-.471a.332.332,0,0,0,.171-.091l5.275-5.275-2.357-2.357Zm0,0" transform="translate(-176.126 -65.643)"/><path class="a" d="M394.725.988a1.668,1.668,0,0,0-2.357,0l-.923.923L393.8,4.268l.923-.923a1.666,1.666,0,0,0,0-2.357Zm0,0" transform="translate(-379.213)"/></g></svg>