<svg xmlns="http://www.w3.org/2000/svg" width="359.143" height="272.39" viewBox="0 0 359.143 272.39"><defs><style>.a{fill:#bbbddb;}.b{fill:#3e2768;}.c{fill:#dce0ee;}.d{fill:#fff;}.e{fill:#f49676;}.f{fill:#ef8160;}.g{fill:#5ec4c2;}.h{fill:#ed3f5c;}.i{fill:#42bdba;}.j{fill:#5678b9;}.k{fill:#ed969c;}.l{fill:#3d2768;}.m{fill:#f2999e;}.n{fill:#e0e3f1;}.o{fill:#f3f3f8;}.p{fill:#5dc4c5;}.q{fill:#2d1d50;}.r{fill:#bbbedd;}</style></defs><path class="a" d="M1487.966,568.167l66.055-38.137,4.683,2.7-65.561,38.387Z" transform="translate(-1310.719 -485.522)"/><path class="a" d="M1755.117,720.44l66.055-38.137,4.683,2.7-65.561,38.387Z" transform="translate(-1494.698 -590.389)"/><path class="b" d="M1335.547,586.141,1541.582,705.1v-5.382L1335.533,581.93Z" transform="translate(-1205.742 -521.264)"/><path class="b" d="M1354.835,575.119,1560.87,694.074v-5.382L1354.822,570.908Z" transform="translate(-1219.025 -513.674)"/><path class="a" d="M1997.368,944.416l6.005-3.431-3-3.731-3,1.735Z" transform="translate(-1661.528 -765.966)"/><path class="b" d="M1335.584,569.163l6-3.431-2.058-2.557-2.581,1.586Z" transform="translate(-1205.777 -508.348)"/><path class="c" d="M1336.949,568.268l204.666,116.61,0,5.428L1335.584,572.671Z" transform="translate(-1205.777 -511.856)"/><path class="d" d="M1339.97,564.76l2.581-1.586L1547.64,679.635l-3,1.734Z" transform="translate(-1208.797 -508.348)"/><path class="b" d="M1997.372,958.05l6-3.431v-5.382l-6,3.431Z" transform="translate(-1661.532 -774.219)"/><path class="c" d="M1551.094,679.635,1344.985,563.8l1.02-.627Z" transform="translate(-1212.251 -508.348)"/><path class="c" d="M1290.981,1014.909l51.38,29.664,7.213-4.164-51.62-29.526Z" transform="translate(-1175.06 -816.673)"/><path class="c" d="M1538.536,1157.813l51.38,29.664,7.212-4.164-51.62-29.526Z" transform="translate(-1345.544 -915.087)"/><path class="d" d="M1190.161,649.707l-46.828,27.048-65.563-37.85,46.843-27.041,25.519,14.732,27.191,15.7Z" transform="translate(-1028.227 -541.88)"/><path class="c" d="M1077.775,638.883s46.825-27.052,112.391,10.8L1124.6,611.83Z" transform="translate(-1028.231 -541.856)"/><path class="b" d="M1077.775,698.724v5.414l65.561,37.848v-5.414Z" transform="translate(-1028.231 -601.697)"/><path class="b" d="M1335.19,733.42v5.414l-46.829,27.046v-5.414Z" transform="translate(-1173.256 -625.592)"/><g transform="translate(56.61 74.06)"><path class="a" d="M1158.976,681.7l-.184-.106-58.321-33.668,39.774-22.967,58.51,33.781Zm-57.035-33.774,57.035,32.925,38.309-22.111L1140.246,625.8Z" transform="translate(-1100.471 -624.955)"/></g><path class="d" d="M1574.154,942.117l65.561,37.848,46.829-27.046-65.55-37.845Z" transform="translate(-1370.074 -750.691)"/><path class="c" d="M1574.154,942.1s46.825-27.053,112.391,10.8l-65.565-37.854Z" transform="translate(-1370.074 -750.671)"/><path class="b" d="M1574.154,1001.938v5.414l65.561,37.848v-5.414Z" transform="translate(-1370.074 -810.512)"/><path class="b" d="M1831.57,1036.635v5.414l-46.829,27.046v-5.414Z" transform="translate(-1515.098 -834.407)"/><g transform="translate(211.146 168.459)"><path class="a" d="M1655.355,984.91l-.184-.106-58.321-33.668,39.775-22.966,58.51,33.781Zm-57.035-33.774,57.035,32.925,38.309-22.111-57.039-32.932Z" transform="translate(-1596.85 -928.169)"/></g><path class="b" d="M944.683,863.85a3.934,3.934,0,0,1,1.212-.377,4.728,4.728,0,0,1,1.647.065c3.134.655,6.406,4.21,7.826,8.806a11.905,11.905,0,0,1,.1,7.642,5.044,5.044,0,0,1-1.908,2.49l4.686-2.76.031-.017c2.709-1.293,3.73-5.6,2.252-10.38-1.675-5.413-5.914-9.385-9.473-8.871a3.946,3.946,0,0,0-1.172.357l-.573.338Z" transform="translate(-936.574 -713.042)"/><path class="b" d="M1093.655,949.882a3.923,3.923,0,0,1,1.211-.376,4.727,4.727,0,0,1,1.647.064c3.134.655,6.406,4.211,7.825,8.806a11.9,11.9,0,0,1,.1,7.643,5.048,5.048,0,0,1-1.908,2.49l4.685-2.76.031-.017c2.71-1.293,3.73-5.6,2.251-10.38-1.675-5.414-5.914-9.385-9.472-8.871a3.949,3.949,0,0,0-1.172.357l-.574.337Z" transform="translate(-1039.167 -772.29)"/><path class="c" d="M918.637,684.333l50.128,28.934,35.8-20.662-46.853-27.057a6.544,6.544,0,0,0-6.538,0Z" transform="translate(-918.637 -578.248)"/><path class="c" d="M1279.718,915.829l-1.479.854C1278.742,916.394,1279.237,916.107,1279.718,915.829Z" transform="translate(-1166.285 -751.212)"/><path class="c" d="M1231.018,923.656l-17.368,10.032C1218.361,930.97,1225.121,927.066,1231.018,923.656Z" transform="translate(-1121.804 -756.602)"/><path class="c" d="M1205.766,955.879l-3.564,2.057C1203.163,957.383,1204.375,956.683,1205.766,955.879Z" transform="translate(-1113.921 -778.793)"/><path class="c" d="M1200.828,962.488c-.222.129-.43.247-.621.36Z" transform="translate(-1112.546 -783.344)"/><path class="c" d="M1199.019,963.643l-.537.309C1198.645,963.859,1198.825,963.755,1199.019,963.643Z" transform="translate(-1111.359 -784.14)"/><path class="b" d="M1079.65,775.054,1086.809,804l35.8-20.671-7.162-28.937Z" transform="translate(-1029.522 -640.034)"/><path class="b" d="M1124.151,786.784l-33.341,19.248-6.4-25.251,33.487-19.326Z" transform="translate(-1032.802 -644.899)"/><path class="d" d="M1192.972,965.881l-.25-.143Z" transform="translate(-1107.392 -785.582)"/><path class="b" d="M1102.645,868.01,1128.96,883.2a4.657,4.657,0,0,0,4.635.011.089.089,0,0,0,.023-.011l.022-.014.484-.278.489-.284.211-.121.062-.037,1.529-.883.79-.455.908-.523,1.439-.832,1.523-.88,1.6-.922,6.209-3.586,1.152-.666,2.991-1.729,4.289-2.476,1.479-.854,5.768-3.334a1.683,1.683,0,0,0,0-2.915l-26.109-15.074Z" transform="translate(-1045.358 -704.044)"/><path class="c" d="M1189.5,926.157l2.631-1.5,33.162-18.934v-4.365c0-4.368-2.521-5.6-2.521-5.6a1.683,1.683,0,0,1,0,2.915L1217,902.007l-1.479.854-4.289,2.476-2.99,1.729-1.153.666-6.209,3.587-1.6.922-1.523.88-1.439.832-.908.523-.79.455-1.529.883-.062.037-.211.121-.489.284-.483.278-.022.014a.091.091,0,0,1-.023.011,4.657,4.657,0,0,1-4.635-.011C1190.106,918.242,1189.5,926.157,1189.5,926.157Z" transform="translate(-1103.568 -737.389)"/><path class="b" d="M1194.645,947.658v4.123l1.757-1.015,34.036-19.642v-4.146l-33.159,19.156Z" transform="translate(-1108.716 -758.89)"/><path class="c" d="M1194.645,960.952v8.269l35.793-20.668V940.3L1196.4,959.938Z" transform="translate(-1108.716 -768.061)"/><path class="e" d="M918.637,727.821l.006,45.47,50.395,29.094c.641-3.067,2.4-5.223,4.995-5.6,4.576-.66,10.029,4.447,12.182,11.409a19.144,19.144,0,0,1,.849,4.593l17.5,10.1V810.5s.61-7.915-2.328-9.61L975.924,785.7l-7.159-28.946Z" transform="translate(-918.637 -621.736)"/><path class="f" d="M1004.577,883.7l-85.9-49.592-.028,8.252,85.929,49.619Z" transform="translate(-918.648 -694.933)"/><path class="b" d="M974.588,768.9l-44.442-25.7,0,20.674,49.434,28.583Z" transform="translate(-926.563 -632.33)"/><path class="d" d="M1038.023,810.214l3.715,19.626-17.505-10.295V802.263Z" transform="translate(-991.358 -673.002)"/><path class="d" d="M960.566,765.963v17.292l-25.115-14.5-.149-17.379Z" transform="translate(-930.114 -637.957)"/><path class="b" d="M1080.526,954.82l18.026,10.406a19.138,19.138,0,0,0-.849-4.593c-2.153-6.963-7.606-12.07-12.182-11.409C1082.924,949.6,1081.167,951.754,1080.526,954.82Z" transform="translate(-1030.126 -774.17)"/><path class="b" d="M1110.31,950.131l.573-.337A3.931,3.931,0,0,0,1110.31,950.131Z" transform="translate(-1050.637 -774.602)"/><path class="c" d="M1085.092,966.929c1.672,5.414,5.914,9.385,9.47,8.871a3.938,3.938,0,0,0,1.313-.427l.022-.011.267-.16a5.045,5.045,0,0,0,1.908-2.49,11.906,11.906,0,0,0-.1-7.643c-1.419-4.6-4.691-8.151-7.825-8.806a4.725,4.725,0,0,0-1.647-.064,3.927,3.927,0,0,0-1.211.376C1084.62,957.9,1083.622,962.181,1085.092,966.929Z" transform="translate(-1032.802 -778.982)"/><path class="b" d="M968.311,868.116l.573-.337A3.928,3.928,0,0,0,968.311,868.116Z" transform="translate(-952.846 -718.121)"/><path class="d" d="M1089.644,971.28c1.33,4.3,4.7,7.46,7.527,7.052a3.231,3.231,0,0,0,1.043-.34l.02-.009.211-.129c.073-.048.146-.1.216-.152-2.819.385-6.172-2.766-7.5-7.055-1.065-3.438-.5-6.574,1.214-7.9l-.02,0a3.118,3.118,0,0,0-.964.3C1089.27,964.1,1088.478,967.508,1089.644,971.28Z" transform="translate(-1036.034 -783.524)"/><path class="b" d="M1094.517,970.575c1.327,4.289,4.68,7.44,7.5,7.055a4.112,4.112,0,0,0,1.3-1.827,9.471,9.471,0,0,0-.079-6.074c-1.127-3.651-3.73-6.479-6.22-7a3.767,3.767,0,0,0-1.287-.054C1094.016,964,1093.452,967.138,1094.517,970.575Z" transform="translate(-1039.389 -783.452)"/><path class="e" d="M1104.1,984.786c.24.777.849,1.347,1.359,1.273a.566.566,0,0,0,.188-.061h0l.038-.023a.722.722,0,0,0,.274-.357,1.707,1.707,0,0,0-.014-1.1,1.788,1.788,0,0,0-1.123-1.264.68.68,0,0,0-.236-.009.57.57,0,0,0-.174.054C1104.03,983.489,1103.887,984.1,1104.1,984.786Z" transform="translate(-1046.292 -797.635)"/><path class="b" d="M931.554,868.788l18.026,10.406a19.139,19.139,0,0,0-.849-4.593c-2.153-6.962-7.606-12.07-12.182-11.409C933.952,863.566,932.2,865.721,931.554,868.788Z" transform="translate(-927.533 -714.922)"/><path class="b" d="M961.339,864.1l.574-.337A3.914,3.914,0,0,0,961.339,864.1Z" transform="translate(-948.045 -715.354)"/><path class="c" d="M936.12,880.9c1.672,5.413,5.914,9.385,9.47,8.871a3.934,3.934,0,0,0,1.313-.427l.023-.011.267-.16a5.042,5.042,0,0,0,1.908-2.49,11.9,11.9,0,0,0-.1-7.642c-1.42-4.6-4.691-8.151-7.826-8.806a4.728,4.728,0,0,0-1.647-.065,3.935,3.935,0,0,0-1.212.377C935.648,871.865,934.65,876.149,936.12,880.9Z" transform="translate(-930.209 -719.733)"/><path class="d" d="M940.673,885.248c1.329,4.3,4.7,7.46,7.527,7.052a3.228,3.228,0,0,0,1.043-.34l.02-.008.211-.129c.073-.048.146-.1.216-.152-2.819.385-6.173-2.766-7.5-7.055-1.065-3.438-.5-6.575,1.214-7.9l-.02,0a3.116,3.116,0,0,0-.964.3C940.3,878.069,939.507,881.476,940.673,885.248Z" transform="translate(-933.442 -724.276)"/><path class="b" d="M945.545,884.543c1.327,4.289,4.68,7.44,7.5,7.055a4.114,4.114,0,0,0,1.3-1.827,9.473,9.473,0,0,0-.079-6.074c-1.127-3.651-3.73-6.479-6.22-7a3.761,3.761,0,0,0-1.287-.054C945.045,877.968,944.48,881.105,945.545,884.543Z" transform="translate(-936.796 -724.204)"/><path class="e" d="M955.126,898.753c.24.777.849,1.347,1.359,1.273a.573.573,0,0,0,.188-.061l0,0,.038-.023a.724.724,0,0,0,.274-.357,1.708,1.708,0,0,0-.014-1.1,1.787,1.787,0,0,0-1.123-1.264.683.683,0,0,0-.237-.009.571.571,0,0,0-.174.054C955.058,897.457,954.915,898.072,955.126,898.753Z" transform="translate(-943.699 -738.387)"/><path class="b" d="M944.683,863.85a3.934,3.934,0,0,1,1.212-.377,4.728,4.728,0,0,1,1.647.065c3.134.655,6.406,4.21,7.826,8.806a11.905,11.905,0,0,1,.1,7.642,5.044,5.044,0,0,1-1.908,2.49l4.686-2.76.031-.017c2.709-1.293,3.73-5.6,2.252-10.38-1.675-5.413-5.914-9.385-9.473-8.871a3.946,3.946,0,0,0-1.172.357l-.573.338Z" transform="translate(-936.574 -713.042)"/><path class="b" d="M1093.655,949.882a3.923,3.923,0,0,1,1.211-.376,4.727,4.727,0,0,1,1.647.064c3.134.655,6.406,4.211,7.825,8.806a11.9,11.9,0,0,1,.1,7.643,5.048,5.048,0,0,1-1.908,2.49l4.685-2.76.031-.017c2.71-1.293,3.73-5.6,2.251-10.38-1.675-5.414-5.914-9.385-9.472-8.871a3.949,3.949,0,0,0-1.172.357l-.574.337Z" transform="translate(-1039.167 -772.29)"/><path class="c" d="M918.637,684.333l50.128,28.934,35.8-20.662-46.853-27.057a6.544,6.544,0,0,0-6.538,0Z" transform="translate(-918.637 -578.248)"/><path class="c" d="M1279.718,915.829l-1.479.854C1278.742,916.394,1279.237,916.107,1279.718,915.829Z" transform="translate(-1166.285 -751.212)"/><path class="c" d="M1231.018,923.656l-17.368,10.032C1218.361,930.97,1225.121,927.066,1231.018,923.656Z" transform="translate(-1121.804 -756.602)"/><path class="c" d="M1205.766,955.879l-3.564,2.057C1203.163,957.383,1204.375,956.683,1205.766,955.879Z" transform="translate(-1113.921 -778.793)"/><path class="c" d="M1200.828,962.488c-.222.129-.43.247-.621.36Z" transform="translate(-1112.546 -783.344)"/><path class="c" d="M1199.019,963.643l-.537.309C1198.645,963.859,1198.825,963.755,1199.019,963.643Z" transform="translate(-1111.359 -784.14)"/><path class="b" d="M1079.65,775.054,1086.809,804l35.8-20.671-7.162-28.937Z" transform="translate(-1029.522 -640.034)"/><path class="d" d="M1124.151,786.784l-33.341,19.248-6.4-25.251,33.487-19.326Z" transform="translate(-1032.802 -644.899)"/><path class="d" d="M1192.972,965.881l-.25-.143Z" transform="translate(-1107.392 -785.582)"/><path class="b" d="M1102.645,868.01,1128.96,883.2a4.657,4.657,0,0,0,4.635.011.089.089,0,0,0,.023-.011l.022-.014.484-.278.489-.284.211-.121.062-.037,1.529-.883.79-.455.908-.523,1.439-.832,1.523-.88,1.6-.922,6.209-3.586,1.152-.666,2.991-1.729,4.289-2.476,1.479-.854,4.286-2.476,1.481-.857a1.683,1.683,0,0,0,0-2.915l-26.109-15.074Z" transform="translate(-1045.358 -704.044)"/><path class="a" d="M1189.5,926.157l2.631-1.5,33.162-18.934v-4.365c0-4.368-2.521-5.6-2.521-5.6a1.683,1.683,0,0,1,0,2.915L1217,902.007l-1.479.854-4.289,2.476-2.99,1.729-1.153.666-6.209,3.587-1.6.922-1.523.88-1.439.832-.908.523-.79.455-1.529.883-.062.037-.211.121-.489.284-.483.278-.022.014a.091.091,0,0,1-.023.011,4.657,4.657,0,0,1-4.635-.011C1190.106,918.242,1189.5,926.157,1189.5,926.157Z" transform="translate(-1103.568 -737.389)"/><path class="b" d="M1194.645,947.658v4.123l1.757-1.015,34.036-19.642v-4.146l-33.159,19.156Z" transform="translate(-1108.716 -758.89)"/><path class="c" d="M1194.645,960.952v8.269l35.793-20.668V940.3L1196.4,959.938Z" transform="translate(-1108.716 -768.061)"/><path class="e" d="M918.637,727.821l.006,45.47,50.395,29.094c.641-3.067,2.4-5.223,4.995-5.6,4.576-.66,10.029,4.447,12.182,11.409a19.144,19.144,0,0,1,.849,4.593l17.5,10.1V810.5s.61-7.915-2.328-9.61L975.924,785.7l-7.159-28.946Z" transform="translate(-918.637 -621.736)"/><path class="f" d="M1004.577,883.7l-85.9-49.592-.028,8.252,85.929,49.619Z" transform="translate(-918.648 -694.933)"/><path class="b" d="M974.588,768.9l-44.442-25.7,0,20.674,49.434,28.583Z" transform="translate(-926.563 -632.33)"/><path class="d" d="M1038.023,810.214l3.715,19.626-17.505-10.295V802.263Z" transform="translate(-991.358 -673.002)"/><path class="d" d="M960.566,765.963v17.292l-25.115-14.5-.149-17.379Z" transform="translate(-930.114 -637.957)"/><path class="b" d="M1080.526,954.82l18.026,10.406a19.138,19.138,0,0,0-.849-4.593c-2.153-6.963-7.606-12.07-12.182-11.409C1082.924,949.6,1081.167,951.754,1080.526,954.82Z" transform="translate(-1030.126 -774.17)"/><path class="b" d="M1110.31,950.131l.573-.337A3.931,3.931,0,0,0,1110.31,950.131Z" transform="translate(-1050.637 -774.602)"/><path class="c" d="M1085.092,966.929c1.672,5.414,5.914,9.385,9.47,8.871a3.938,3.938,0,0,0,1.313-.427l.022-.011.267-.16a5.045,5.045,0,0,0,1.908-2.49,11.906,11.906,0,0,0-.1-7.643c-1.419-4.6-4.691-8.151-7.825-8.806a4.725,4.725,0,0,0-1.647-.064,3.927,3.927,0,0,0-1.211.376C1084.62,957.9,1083.622,962.181,1085.092,966.929Z" transform="translate(-1032.802 -778.982)"/><path class="b" d="M968.311,868.116l.573-.337A3.928,3.928,0,0,0,968.311,868.116Z" transform="translate(-952.846 -718.121)"/><path class="a" d="M1089.644,971.28c1.33,4.3,4.7,7.46,7.527,7.052a3.231,3.231,0,0,0,1.043-.34l.02-.009.211-.129c.073-.048.146-.1.216-.152-2.819.385-6.172-2.766-7.5-7.055-1.065-3.438-.5-6.574,1.214-7.9l-.02,0a3.118,3.118,0,0,0-.964.3C1089.27,964.1,1088.478,967.508,1089.644,971.28Z" transform="translate(-1036.034 -783.524)"/><path class="b" d="M1094.517,970.575c1.327,4.289,4.68,7.44,7.5,7.055a4.112,4.112,0,0,0,1.3-1.827,9.471,9.471,0,0,0-.079-6.074c-1.127-3.651-3.73-6.479-6.22-7a3.767,3.767,0,0,0-1.287-.054C1094.016,964,1093.452,967.138,1094.517,970.575Z" transform="translate(-1039.389 -783.452)"/><path class="g" d="M1104.1,984.786c.24.777.849,1.347,1.359,1.273a.566.566,0,0,0,.188-.061h0l.038-.023a.722.722,0,0,0,.274-.357,1.707,1.707,0,0,0-.014-1.1,1.788,1.788,0,0,0-1.123-1.264.68.68,0,0,0-.236-.009.57.57,0,0,0-.174.054C1104.03,983.489,1103.887,984.1,1104.1,984.786Z" transform="translate(-1046.292 -797.635)"/><path class="b" d="M931.554,868.788l18.026,10.406a19.139,19.139,0,0,0-.849-4.593c-2.153-6.962-7.606-12.07-12.182-11.409C933.952,863.566,932.2,865.721,931.554,868.788Z" transform="translate(-927.533 -714.922)"/><path class="b" d="M961.339,864.1l.574-.337A3.914,3.914,0,0,0,961.339,864.1Z" transform="translate(-948.045 -715.354)"/><path class="c" d="M936.12,880.9c1.672,5.413,5.914,9.385,9.47,8.871a3.934,3.934,0,0,0,1.313-.427l.023-.011.267-.16a5.042,5.042,0,0,0,1.908-2.49,11.9,11.9,0,0,0-.1-7.642c-1.42-4.6-4.691-8.151-7.826-8.806a4.728,4.728,0,0,0-1.647-.065,3.935,3.935,0,0,0-1.212.377C935.648,871.865,934.65,876.149,936.12,880.9Z" transform="translate(-930.209 -719.733)"/><path class="a" d="M940.673,885.248c1.329,4.3,4.7,7.46,7.527,7.052a3.228,3.228,0,0,0,1.043-.34l.02-.008.211-.129c.073-.048.146-.1.216-.152-2.819.385-6.173-2.766-7.5-7.055-1.065-3.438-.5-6.575,1.214-7.9l-.02,0a3.116,3.116,0,0,0-.964.3C940.3,878.069,939.507,881.476,940.673,885.248Z" transform="translate(-933.442 -724.276)"/><path class="b" d="M945.545,884.543c1.327,4.289,4.68,7.44,7.5,7.055a4.114,4.114,0,0,0,1.3-1.827,9.473,9.473,0,0,0-.079-6.074c-1.127-3.651-3.73-6.479-6.22-7a3.761,3.761,0,0,0-1.287-.054C945.045,877.968,944.48,881.105,945.545,884.543Z" transform="translate(-936.796 -724.204)"/><path class="g" d="M955.126,898.753c.24.777.849,1.347,1.359,1.273a.573.573,0,0,0,.188-.061l0,0,.038-.023a.724.724,0,0,0,.274-.357,1.708,1.708,0,0,0-.014-1.1,1.787,1.787,0,0,0-1.123-1.264.683.683,0,0,0-.237-.009.571.571,0,0,0-.174.054C955.058,897.457,954.915,898.072,955.126,898.753Z" transform="translate(-943.699 -738.387)"/><path class="h" d="M1296.874,916.32c-.413,1.337-1.461,2.318-2.339,2.191a.967.967,0,0,1-.324-.106l-.006,0-.066-.04a1.244,1.244,0,0,1-.471-.615,2.941,2.941,0,0,1,.024-1.888,3.077,3.077,0,0,1,1.933-2.176,1.172,1.172,0,0,1,.407-.016.968.968,0,0,1,.3.093C1296.991,914.089,1297.238,915.148,1296.874,916.32Z" transform="translate(-1176.812 -749.716)"/><path class="h" d="M1205.626,968.63c-.413,1.337-1.461,2.318-2.339,2.191a.958.958,0,0,1-.324-.105l-.006,0-.066-.04a1.245,1.245,0,0,1-.471-.615,2.941,2.941,0,0,1,.024-1.888,3.077,3.077,0,0,1,1.933-2.176,1.169,1.169,0,0,1,.407-.016.97.97,0,0,1,.3.093C1205.743,966.4,1205.99,967.457,1205.626,968.63Z" transform="translate(-1113.972 -785.741)"/><path class="b" d="M1251.171,946.093c-.175.568-.62.984-.993.931a.413.413,0,0,1-.138-.045h0l-.028-.017a.53.53,0,0,1-.2-.261,1.25,1.25,0,0,1,.01-.8,1.307,1.307,0,0,1,.821-.924.5.5,0,0,1,.173-.007.409.409,0,0,1,.127.04C1251.221,945.145,1251.325,945.595,1251.171,946.093Z" transform="translate(-1146.665 -771.275)"/><path class="a" d="M1296.983,956.187v1.247a.307.307,0,0,1-.157.268l-2.626,1.471a.307.307,0,0,1-.457-.261l-.029-1.191a.308.308,0,0,1,.154-.274l2.655-1.527A.307.307,0,0,1,1296.983,956.187Z" transform="translate(-1176.942 -778.793)"/><path class="a" d="M1205.944,1007.871v1.248a.308.308,0,0,1-.157.268l-2.627,1.47a.307.307,0,0,1-.457-.261l-.029-1.19a.307.307,0,0,1,.154-.274l2.656-1.527A.307.307,0,0,1,1205.944,1007.871Z" transform="translate(-1114.246 -814.387)"/><path class="a" d="M1004.566,736.093s-34.05,19.648-85.929-8.272l50.128,28.934Z" transform="translate(-918.637 -621.736)"/><path class="c" d="M1102.645,868.01l32.777-14.45,27.655,12.626,1.481-.857a1.683,1.683,0,0,0,0-2.915l-26.109-15.074Z" transform="translate(-1045.358 -704.044)"/><path class="b" d="M2003.709,533.128a3.935,3.935,0,0,0-1.211-.376,4.726,4.726,0,0,0-1.647.065c-3.134.655-6.406,4.211-7.825,8.806a11.9,11.9,0,0,0-.1,7.643,5.045,5.045,0,0,0,1.908,2.49l-4.686-2.76-.031-.017c-2.709-1.293-3.73-5.6-2.252-10.38,1.676-5.414,5.914-9.385,9.473-8.871a3.948,3.948,0,0,1,1.172.357l.573.337Z" transform="translate(-1654.519 -485.283)"/><path class="b" d="M1791.67,655.5a3.931,3.931,0,0,0-1.211-.377,4.721,4.721,0,0,0-1.647.065c-3.134.655-6.405,4.21-7.825,8.806a11.907,11.907,0,0,0-.1,7.643,5.045,5.045,0,0,0,1.909,2.49l-4.686-2.76-.031-.017c-2.709-1.293-3.73-5.6-2.252-10.38,1.675-5.414,5.914-9.385,9.472-8.871a3.953,3.953,0,0,1,1.172.357l.573.337Z" transform="translate(-1508.494 -569.558)"/><path class="c" d="M1638.878,621.4l1.478.854C1639.854,621.961,1639.359,621.674,1638.878,621.4Z" transform="translate(-1414.647 -548.444)"/><path class="c" d="M1652.43,629.223l17.368,10.032C1665.087,636.537,1658.327,632.633,1652.43,629.223Z" transform="translate(-1423.98 -553.834)"/><path class="c" d="M1708.216,661.446l3.565,2.058C1710.819,662.95,1709.608,662.25,1708.216,661.446Z" transform="translate(-1462.398 -576.025)"/><path class="c" d="M1719.665,668.055c.222.129.43.247.621.36Z" transform="translate(-1470.283 -580.576)"/><path class="c" d="M1721.66,669.21l.537.309C1722.034,669.426,1721.854,669.322,1721.66,669.21Z" transform="translate(-1471.657 -581.372)"/><path class="b" d="M1745.389,503.447l-5.369,21.711-35.8-20.671,5.626-21.889Z" transform="translate(-1459.644 -452.857)"/><path class="d" d="M1709.813,508.419l33.341,19.248,4.519-17.837-33.4-19.476Z" transform="translate(-1463.499 -458.198)"/><path class="d" d="M1728.341,671.448l.25-.143Z" transform="translate(-1476.258 -582.815)"/><path class="b" d="M1680.4,573.575l-26.315,15.193a4.657,4.657,0,0,1-4.635.011.09.09,0,0,1-.023-.011l-.023-.014-.483-.278-.489-.284-.211-.121-.062-.037-1.529-.882-.79-.455-.908-.523-1.439-.832-1.524-.88-1.6-.922-6.209-3.587-1.152-.666-2.991-1.728-4.289-2.476-1.479-.855-5.768-3.334a1.683,1.683,0,0,1,0-2.915L1644.6,552.9Z" transform="translate(-1400.027 -501.275)"/><path class="c" d="M1640.892,641.462l-28.639-16.351v-.244s8.289,6.082,8.289-3.471l1.479.854,4.289,2.476,2.991,1.729,1.152.666,6.209,3.586,1.6.922,1.524.88,1.439.832S1637.492,639.571,1640.892,641.462Z" transform="translate(-1396.312 -548.444)"/><path class="b" d="M1648.046,653.225v4.123l-1.757-1.015-34.036-19.642v-4.146l33.159,19.156Z" transform="translate(-1396.312 -556.122)"/><path class="a" d="M1648.046,666.519v8.269l-35.793-20.668v-8.258L1646.29,665.5Z" transform="translate(-1396.312 -565.293)"/><path class="b" d="M1810.287,655.7l-.573-.337A3.948,3.948,0,0,1,1810.287,655.7Z" transform="translate(-1532.297 -571.834)"/><path class="b" d="M1803.319,659.769l-.574-.337A3.95,3.95,0,0,1,1803.319,659.769Z" transform="translate(-1527.498 -574.638)"/><path class="b" d="M1801.47,660.441l-18.026,10.406a19.152,19.152,0,0,1,.849-4.593c2.153-6.962,7.606-12.07,12.182-11.409C1799.072,655.218,1800.829,657.374,1801.47,660.441Z" transform="translate(-1514.206 -571.439)"/><path class="b" d="M1810.291,655.751l-.573-.337A3.944,3.944,0,0,1,1810.291,655.751Z" transform="translate(-1532.299 -571.871)"/><path class="c" d="M1805.278,672.549c-1.672,5.413-5.914,9.385-9.47,8.871a3.936,3.936,0,0,1-1.313-.427l-.023-.011-.267-.16a5.044,5.044,0,0,1-1.909-2.49,11.905,11.905,0,0,1,.1-7.643c1.42-4.6,4.691-8.151,7.825-8.806a4.719,4.719,0,0,1,1.647-.065,3.932,3.932,0,0,1,1.211.377C1805.75,663.518,1806.748,667.8,1805.278,672.549Z" transform="translate(-1519.904 -576.25)"/><path class="a" d="M1811.087,676.9c-1.329,4.3-4.7,7.46-7.527,7.052a3.213,3.213,0,0,1-1.043-.34l-.02-.008-.211-.129c-.073-.048-.146-.1-.216-.152,2.819.385,6.173-2.766,7.5-7.055,1.065-3.438.5-6.575-1.214-7.9l.019,0a3.106,3.106,0,0,1,.964.3C1811.461,669.722,1812.253,673.129,1811.087,676.9Z" transform="translate(-1527.033 -580.793)"/><path class="b" d="M1805.672,676.2c-1.327,4.289-4.68,7.44-7.5,7.055a4.115,4.115,0,0,1-1.3-1.827,9.472,9.472,0,0,1,.079-6.074c1.127-3.651,3.73-6.479,6.22-7a3.759,3.759,0,0,1,1.287-.053C1806.173,669.621,1806.738,672.758,1805.672,676.2Z" transform="translate(-1523.136 -580.721)"/><path class="e" d="M1813.251,690.406c-.24.777-.849,1.347-1.359,1.273a.566.566,0,0,1-.188-.061l0,0-.038-.023a.723.723,0,0,1-.274-.357,1.709,1.709,0,0,1,.015-1.1,1.787,1.787,0,0,1,1.123-1.264.673.673,0,0,1,.236-.009.557.557,0,0,1,.174.054C1813.319,689.11,1813.462,689.725,1813.251,690.406Z" transform="translate(-1533.393 -594.904)"/><path class="g" d="M1834.394,459.353c-1.9,1.144-26.475,16.044-36.394,30.061-8.547,12.078-26.663,11.946-44.72,23.614a78.156,78.156,0,0,0-26.174,28.923l0,0V529.561s-.61-7.915,2.328-9.61l26.315-15.193,5.368-21.71,51.918-30.07,14.318,10.436Z" transform="translate(-1475.369 -432.459)"/><path class="c" d="M1722.29,416.81l51.658-29.741,35.807,20.52-51.918,30.07Z" transform="translate(-1472.091 -387.069)"/><path class="i" d="M1834.634,473.228v20.688l-21.486,12.379-50.4,29.094c-.641-3.067-2.4-5.222-4.995-5.6-4.576-.66-10.029,4.447-12.182,11.409a19.147,19.147,0,0,0-.849,4.593l-17.5,10.1a78.156,78.156,0,0,1,26.174-28.923c18.057-11.668,36.172-11.536,44.72-23.614,9.919-14.018,34.491-28.917,36.394-30.061Z" transform="translate(-1475.492 -446.404)"/><path class="b" d="M1965.289,418.366l-42.966-24.8-5.376,3.1,26.862,15.394,14.318,10.437Z" transform="translate(-1606.146 -391.542)"/><path class="b" d="M1832.439,488.887l-4.418,19.21,67.606-39.152-13.064-8.988Z" transform="translate(-1544.905 -437.264)"/><path class="d" d="M1837.618,520.169l-3.654,15.791,31.2-17.9V504.288Z" transform="translate(-1548.998 -467.795)"/><path class="d" d="M1938.469,476.835v13.773l30.9-17.919-10.8-7.449Z" transform="translate(-1620.967 -440.903)"/><path class="b" d="M2022.326,533.323l-.573-.337A3.93,3.93,0,0,1,2022.326,533.323Z" transform="translate(-1678.322 -487.558)"/><path class="b" d="M2015.357,537.395l-.573-.337A3.909,3.909,0,0,1,2015.357,537.395Z" transform="translate(-1673.524 -490.362)"/><path class="b" d="M2013.509,538.066l-18.026,10.406a19.137,19.137,0,0,1,.849-4.593c2.153-6.963,7.606-12.07,12.182-11.409C2011.111,532.844,2012.868,535,2013.509,538.066Z" transform="translate(-1660.231 -487.163)"/><path class="b" d="M2022.328,533.377l-.574-.337A3.92,3.92,0,0,1,2022.328,533.377Z" transform="translate(-1678.324 -487.595)"/><path class="c" d="M2017.316,550.175c-1.673,5.414-5.914,9.385-9.47,8.871a3.942,3.942,0,0,1-1.312-.427l-.022-.011-.267-.16a5.043,5.043,0,0,1-1.909-2.49,11.9,11.9,0,0,1,.1-7.643c1.419-4.6,4.691-8.151,7.825-8.806a4.729,4.729,0,0,1,1.647-.064,3.935,3.935,0,0,1,1.212.376C2017.788,541.144,2018.786,545.427,2017.316,550.175Z" transform="translate(-1665.928 -491.975)"/><path class="a" d="M2023.125,554.527c-1.329,4.3-4.7,7.46-7.527,7.052a3.224,3.224,0,0,1-1.043-.34l-.02-.008-.211-.13c-.073-.048-.146-.1-.217-.152,2.819.385,6.173-2.766,7.5-7.055,1.065-3.437.5-6.574-1.214-7.9l.02,0a3.1,3.1,0,0,1,.964.3C2023.5,547.348,2024.292,550.755,2023.125,554.527Z" transform="translate(-1673.058 -496.518)"/><path class="b" d="M2017.71,553.821c-1.326,4.289-4.68,7.44-7.5,7.055a4.117,4.117,0,0,1-1.3-1.827,9.471,9.471,0,0,1,.079-6.074c1.127-3.651,3.73-6.479,6.22-7a3.759,3.759,0,0,1,1.287-.053C2018.21,547.247,2018.776,550.384,2017.71,553.821Z" transform="translate(-1669.161 -496.445)"/><path class="e" d="M2025.289,568.032c-.24.777-.849,1.347-1.359,1.273a.563.563,0,0,1-.188-.061l0,0-.039-.023a.724.724,0,0,1-.274-.357,1.707,1.707,0,0,1,.014-1.1,1.788,1.788,0,0,1,1.123-1.264.684.684,0,0,1,.237-.009.564.564,0,0,1,.174.054C2025.357,566.736,2025.5,567.351,2025.289,568.032Z" transform="translate(-1679.418 -510.628)"/><path class="h" d="M1620.542,607.574c0,9.554-8.289,3.471-8.289,3.471v-4.121c0-4.368,2.521-5.6,2.521-5.6a1.683,1.683,0,0,0,0,2.915Z" transform="translate(-1396.312 -534.622)"/><path class="h" d="M1708.233,671.971l-2.631-1.5L1701.273,668c-.065-.04-.129-.076-.194-.112-3.4-1.892.329-8.12.329-8.12l.908.523.79.455,1.529.883.062.037.211.121.489.284.483.278.022.014a.08.08,0,0,0,.022.011,4.657,4.657,0,0,0,4.635-.011C1707.623,664.056,1708.233,671.971,1708.233,671.971Z" transform="translate(-1456.498 -574.869)"/><path class="d" d="M1708.976,674.7c.374,1.211,1.323,2.1,2.119,1.984a.873.873,0,0,0,.294-.1l.005,0,.06-.036a1.128,1.128,0,0,0,.427-.557,2.66,2.66,0,0,0-.022-1.71,2.787,2.787,0,0,0-1.75-1.97,1.054,1.054,0,0,0-.369-.014.872.872,0,0,0-.271.084C1708.87,672.682,1708.647,673.641,1708.976,674.7Z" transform="translate(-1462.817 -583.494)"/><path class="d" d="M1618.755,621.717c.374,1.211,1.323,2.1,2.118,1.985a.873.873,0,0,0,.294-.1l.005,0,.06-.036a1.128,1.128,0,0,0,.427-.557,2.664,2.664,0,0,0-.021-1.71,2.786,2.786,0,0,0-1.751-1.97,1.059,1.059,0,0,0-.368-.015.887.887,0,0,0-.271.084C1618.649,619.7,1618.426,620.655,1618.755,621.717Z" transform="translate(-1400.684 -547.005)"/><path class="b" d="M1616.238,662.528c.178.577.63,1,1.009.945a.415.415,0,0,0,.14-.045h0l.029-.017a.536.536,0,0,0,.2-.265,1.269,1.269,0,0,0-.011-.814,1.328,1.328,0,0,0-.834-.939.508.508,0,0,0-.176-.007.415.415,0,0,0-.129.04C1616.187,661.566,1616.081,662.023,1616.238,662.528Z" transform="translate(-1399.005 -575.979)"/><path class="b" d="M1623.807,666.988c.178.577.63,1,1.009.945a.422.422,0,0,0,.14-.045h0l.029-.017a.536.536,0,0,0,.2-.265,1.269,1.269,0,0,0-.011-.814,1.326,1.326,0,0,0-.834-.939.509.509,0,0,0-.176-.007.423.423,0,0,0-.129.04C1623.756,666.026,1623.65,666.483,1623.807,666.988Z" transform="translate(-1404.218 -579.051)"/><path class="b" d="M1707.791,714.971c.178.577.63,1,1.009.946a.424.424,0,0,0,.14-.045h0l.028-.017a.537.537,0,0,0,.2-.266,1.268,1.268,0,0,0-.01-.814,1.328,1.328,0,0,0-.834-.938.5.5,0,0,0-.176-.007.419.419,0,0,0-.129.04C1707.741,714.009,1707.635,714.465,1707.791,714.971Z" transform="translate(-1462.056 -612.095)"/><path class="b" d="M1715.36,719.431c.178.577.63,1,1.009.945a.421.421,0,0,0,.14-.045h0l.028-.017a.54.54,0,0,0,.2-.266,1.27,1.27,0,0,0-.011-.814,1.328,1.328,0,0,0-.834-.938.5.5,0,0,0-.175-.007.414.414,0,0,0-.129.04C1715.31,718.469,1715.2,718.925,1715.36,719.431Z" transform="translate(-1467.268 -615.167)"/><path class="c" d="M1680.4,573.575l-31.771-14.807-30.143,12.125a1.683,1.683,0,0,1,0-2.915L1644.6,552.9Z" transform="translate(-1400.027 -501.275)"/><path class="a" d="M1722.289,462.2s29.616,19.348,87.464-9.221l-51.918,30.07Z" transform="translate(-1472.09 -432.46)"/><path class="c" d="M1367.908,755l46.829,27.027.006,43.26-46.836-27.03Z" transform="translate(-1228.038 -640.455)"/><path class="d" d="M1442.841,729.93l-28.1,16.217-46.829-27.028,28.1-16.222,17.886,10.322,14.29,8.25Z" transform="translate(-1228.039 -604.571)"/><path class="c" d="M1367.908,719.119l26.382-8.988,48.55,19.8L1396.005,702.9Z" transform="translate(-1228.038 -604.571)"/><path class="b" d="M1546.429,789.724l0,43.254L1518.333,849.2l-.006-43.26Z" transform="translate(-1331.627 -664.366)"/><path class="c" d="M1408.209,718.7a.48.48,0,0,1-.239.419l-8.53,5.088.11.1a4.32,4.32,0,0,1,1.518,3.158,3.437,3.437,0,0,1-.022.386,2.972,2.972,0,0,1-.063.4c-.563,2.6-3.879,4.6-7.886,4.6-3.787,0-6.96-1.783-7.769-4.169a3.79,3.79,0,0,1-.184-.827,3.408,3.408,0,0,1-.022-.386c0-2.971,3.57-5.383,7.974-5.383a10.286,10.286,0,0,1,5.353,1.4l9.022-5.21a.491.491,0,0,1,.735.427Z" transform="translate(-1239.894 -615.117)"/><path class="h" d="M1398.907,731.516a3.438,3.438,0,0,1-.022.386,2.975,2.975,0,0,1-.063.4c-.562,2.6-3.878,4.6-7.886,4.6-3.787,0-6.96-1.783-7.769-4.169a3.8,3.8,0,0,1-.184-.827,3.409,3.409,0,0,1-.022-.386c0-2.971,3.57-5.383,7.975-5.383a10.23,10.23,0,0,1,5.474,1.474,6.528,6.528,0,0,1,.978.75A4.321,4.321,0,0,1,1398.907,731.516Z" transform="translate(-1238.405 -620.573)"/><path class="b" d="M1398.909,743.424v.769c0,2.973-3.569,5.383-7.973,5.383s-7.972-2.41-7.972-5.383v-.769a3.2,3.2,0,0,0,.022.385,3.683,3.683,0,0,0,.183.827c.812,2.388,3.982,4.171,7.768,4.171,4.01,0,7.326-2,7.887-4.6a3.518,3.518,0,0,0,.064-.4A3.2,3.2,0,0,0,1398.909,743.424Z" transform="translate(-1238.406 -632.481)"/><g transform="translate(145.694 106.167)"><path class="d" d="M1394.643,728.157a9.557,9.557,0,0,0-1.192-.073,10.442,10.442,0,0,0-1.06.055c-3.267.347-5.776,2.276-5.776,4.6a2.655,2.655,0,0,0,.02.334,3.181,3.181,0,0,0,.158.724c.627,1.845,2.79,3.206,5.457,3.522a10.273,10.273,0,0,0,1.2.07,9.513,9.513,0,0,0,1.007-.053c2.922-.3,5.314-1.88,5.754-3.912a3.018,3.018,0,0,0,.055-.35,2.742,2.742,0,0,0,.02-.336C1400.287,730.448,1397.846,728.539,1394.643,728.157Zm5.406,4.892a2.937,2.937,0,0,1-.053.323c-.418,1.937-2.715,3.445-5.534,3.74a9.542,9.542,0,0,1-1.012.053,9.664,9.664,0,0,1-1.2-.075c-2.546-.319-4.666-1.64-5.253-3.371a2.945,2.945,0,0,1-.149-.675,2.794,2.794,0,0,1-.018-.31c0-2.2,2.41-4.033,5.554-4.374a9.9,9.9,0,0,1,1.062-.057,9.512,9.512,0,0,1,1.188.073c3.082.374,5.428,2.186,5.428,4.358A2.879,2.879,0,0,1,1400.049,733.049Z" transform="translate(-1386.615 -728.084)"/></g><path class="d" d="M1407.114,728.864l-.176,8.736a9.554,9.554,0,0,1-1.011.053,9.663,9.663,0,0,1-1.2-.075c.053-2.68.1-6.18.134-8.729a9.885,9.885,0,0,1,1.062-.057A9.5,9.5,0,0,1,1407.114,728.864Z" transform="translate(-1253.396 -622.404)"/><path class="b" d="M1436.9,712.6a.48.48,0,0,1-.239.419l-9.522,5.68a6.53,6.53,0,0,0-.978-.75l10-5.776a.491.491,0,0,1,.735.427Z" transform="translate(-1268.154 -610.912)"/><path class="g" d="M1367.908,755l20.632,35.144,26.2-8.117Z" transform="translate(-1228.038 -640.455)"/><path class="b" d="M1440.021,849.369l24.385-4.538-.006-3.015Z" transform="translate(-1277.7 -700.241)"/><path class="d" d="M1248.172,717.783v4.091l-18.9-15.007Z" transform="translate(-1132.562 -607.306)"/><path class="d" d="M1248.175,539.982l0,46.837-18.9-10.915V524.975s0-5.852,3.213-8.276a18.413,18.413,0,0,1,3.092,1.457c.361.208.71.421,1.049.641C1248.172,526.247,1248.175,539.982,1248.175,539.982Z" transform="translate(-1132.562 -476.342)"/><path class="b" d="M1226.289,513.37l-.7.381A4.789,4.789,0,0,1,1226.289,513.37Z" transform="translate(-1130.023 -474.049)"/><path class="b" d="M1244.66,535.782l0,50.928-1.65.908v-1.86l0-49.069s0-14.554-12.6-21.826c-3.537-2.043-6.082-2.365-7.913-1.771a4.639,4.639,0,0,0-.727.3l1.187-.641.7-.381,0,0c1.858-.821,4.536-.641,8.4,1.588C1244.657,521.228,1244.66,535.782,1244.66,535.782Z" transform="translate(-1127.396 -473.05)"/><path class="c" d="M1234.243,589.628l-25.2-14.551V524.148s0-6.488,3.752-8.632l.21-.114a4.642,4.642,0,0,1,.727-.3,7.493,7.493,0,0,1,4.821.314c-3.213,2.424-3.213,8.276-3.213,8.276v50.929Z" transform="translate(-1118.632 -475.06)"/><path class="h" d="M1240.458,556.15v4.281l-1.854-1.07,2.78,4.816,2.78-1.61-1.861-1.061.007-4.29Z" transform="translate(-1138.99 -503.51)"/><path class="b" d="M1229.49,598.256l1.293-2.24,5.173,2.987,1.293,3.733,1.3.743v2.987L1228.2,600.5V597.51Z" transform="translate(-1131.822 -530.966)"/><g transform="translate(96.677 83.184)"><rect class="c" width="0.375" height="11.025" transform="matrix(0.501, -0.866, 0.866, 0.501, 0, 0.324)"/></g><g transform="translate(93.495 85.021)"><rect class="c" width="0.375" height="18.381" transform="translate(0 0.325) rotate(-60.022)"/></g><g transform="translate(93.495 88.686)"><rect class="c" width="0.375" height="18.381" transform="translate(0 0.325) rotate(-60.022)"/></g><path class="b" d="M1247.626,620.2c.242.782.854,1.356,1.368,1.281a.567.567,0,0,0,.19-.062l0,0,.039-.023a.729.729,0,0,0,.276-.36,1.72,1.72,0,0,0-.014-1.1,1.8,1.8,0,0,0-1.13-1.272.684.684,0,0,0-.238-.009.571.571,0,0,0-.175.055C1247.558,618.9,1247.414,619.519,1247.626,620.2Z" transform="translate(-1145.135 -546.551)"/><path class="b" d="M1231.737,611.067c.241.782.854,1.356,1.368,1.282a.568.568,0,0,0,.19-.062l0,0,.039-.023a.731.731,0,0,0,.276-.36,1.719,1.719,0,0,0-.014-1.1,1.8,1.8,0,0,0-1.13-1.272.687.687,0,0,0-.238-.009.568.568,0,0,0-.175.054C1231.668,609.762,1231.524,610.381,1231.737,611.067Z" transform="translate(-1134.193 -540.258)"/><path class="b" d="M1327.093,674.883l-31.835,13.247-.011-27.555,4.654-1.39Z" transform="translate(-1177.998 -574.467)"/><path class="j" d="M1901.709,714.055s.863,4.278-2.53,4.048-7.5-1.7-7.405-2.9,4.41-1.656,4.41-1.656h4.973Z" transform="translate(-1588.808 -611.907)"/><path class="j" d="M1927.894,696.77s1.526,3.626-1.119,3.9-6.784-2.883-6.393-3.9,2.731-.95,2.731-.95l3.18.336Z" transform="translate(-1608.493 -599.697)"/><path class="b" d="M1928.184,598.508a11.992,11.992,0,0,1-.644,4.77c-.858,2.007-.8,2.129-.429,5.993s1.41,20.484,1.41,20.484-.368.92-2.116.951-2.8.307-2.687-.552-.165-10.947-.962-13.891-1.779-6.8-1.411-8.765l.613-7.837Z" transform="translate(-1609.12 -532.681)"/><path class="k" d="M1893.9,561.915s-1.616,4.124-3.326,2.555,1.514-10.178,1.514-10.178l1.435.475Z" transform="translate(-1587.638 -502.231)"/><path class="k" d="M1940.538,551.15s2.391,3.666.81,4.578-4.363-1.242-4.363-1.242l2.576-3.337Z" transform="translate(-1619.946 -500.067)"/><path class="e" d="M1935.212,532.128a9.085,9.085,0,0,1,2.055,2.114,21.571,21.571,0,0,1,1.84,3.188,4.7,4.7,0,0,1-1.043,2.577,5.2,5.2,0,0,1-2.33,1.38l-.966-3.373Z" transform="translate(-1618.419 -486.967)"/><path class="k" d="M1901.439,506.753a8.733,8.733,0,0,0-.709,2.734c-.245,1.866.14,3.83.709,3.755s1.856-.581,2.017-.213a8.953,8.953,0,0,1,.46,2.645l3.657-1.679a7.957,7.957,0,0,1-.851-2.53s-1.915-5.152-1.877-5.312-1.3-1.288-1.3-1.288Z" transform="translate(-1594.926 -468.192)"/><path class="b" d="M1902.381,489.89a4.029,4.029,0,0,0-1.472,3.189,4.434,4.434,0,0,0,.981,3.588c.552.8,1.689.8,1.687,1.656s-.614,1.633-.276,1.721.843-.832,1.18-.142.184,1.4-.276,1.487-.782-.03-.767.368,4.707.92,5.443-1.5-.429-3.435-.429-3.435.675-2.238-1.012-3.434-2.3-.46-2.3-.46S1904.313,488.54,1902.381,489.89Z" transform="translate(-1595.092 -457.701)"/><path class="b" d="M1910.731,608.118a7.071,7.071,0,0,1-.737,5.088c-1.776,2.941-3.3,1.518-2.939,10.165s1.238,18.076,1.238,18.076a3.809,3.809,0,0,1-3.128.6c-1.969-.4-2.4-1.1-2.4-1.1l-1.436-32.242Z" transform="translate(-1595.392 -539.299)"/><path class="d" d="M1901.207,555.938a21.256,21.256,0,0,0,6.714.17,8.5,8.5,0,0,0,1.249-.235,9.844,9.844,0,0,0,5.159-3.509,17.21,17.21,0,0,0,0-4.541c-.274-3.344-2.116-3.892-1.162-6.774s.061-7.114-.645-8.86a.879.879,0,0,0-.457-.479s0,0,0,0c-1.45-.757-5.338.88-5.338.88s-3.078.9-4.484,2.516,0,6.487-.653,8.786S1901.207,555.938,1901.207,555.938Z" transform="translate(-1595.267 -486.538)"/><path class="e" d="M1896.239,540.7a8.919,8.919,0,0,0-2.6,3.028,38.476,38.476,0,0,0-1.963,5.391,3.406,3.406,0,0,0,1.472,2.3,6.584,6.584,0,0,0,2.238,1.012S1899.88,538.046,1896.239,540.7Z" transform="translate(-1588.744 -492.646)"/><path class="c" d="M1925.959,556.325a9.844,9.844,0,0,0,5.159-3.509,17.226,17.226,0,0,0,0-4.541c-.274-3.344-2.116-3.892-1.162-6.774s.061-7.114-.645-8.859a.88.88,0,0,0-.457-.479c.061.322,1.711,8.729-.449,10.044-2.2,1.341-4.088,2.321-1.911,2.647S1930.974,554.588,1925.959,556.325Z" transform="translate(-1612.056 -486.991)"/><path class="l" d="M1529.9,737.048v3.918l-14.29-8.249v-1.508l5.708.615Z" transform="translate(-1329.754 -624.069)"/><path class="m" d="M1505.141,700.469a7.144,7.144,0,0,1-.454,4.184c-.951,1.807-4.28,7.656-4.28,7.656l1.356.71s5.492-4.991,5.73-7.416a12.174,12.174,0,0,0-.593-4.717Z" transform="translate(-1319.285 -602.899)"/><path class="n" d="M1518.583,672.264a7.562,7.562,0,0,0-2.187,3.787,23.931,23.931,0,0,0-.782,4.994,5.742,5.742,0,0,0,2.256.418c1.046-.086,1.076-.418,1.076-.418Z" transform="translate(-1329.758 -583.475)"/><path class="d" d="M1529.513,683.987c-.725,1.53-3.293,4.719-5.581,7.41a22.622,22.622,0,0,1-3.122-.6v0c1.164-1.878,2.491-3.946,3.3-4.95,1.669-2.095,2.317-8.049,2.317-8.049s-1.153-8.283.636-10.26a4.86,4.86,0,0,0-2.014,3.079c-.525,2.617.856,6.611,0,7.227s-3.378-.091-2.283.668,2.925-.1,2.579,2-.345,4.468-1.581,4.517-5.319-3.9-5.3-2.234-2.4,5.316,2.342,8.006a10.123,10.123,0,0,1-2.305-.907,9.886,9.886,0,0,1-3.635-3.558c-.08-.134-.151-.266-.214-.385-.023-.037-.04-.071-.057-.106a6.4,6.4,0,0,1-.439-1.03s2.4-3.424,1.948-4.851,0-10.109,1.475-12.466c1.387-2.217,6.671-2.157,6.671-2.157a5.33,5.33,0,0,1,3.532,1.792l0,0a6.454,6.454,0,0,1,1.35,4.374,37.654,37.654,0,0,1-.5,6.223c-.052.342-.1.648-.137.93a5.36,5.36,0,0,0,.017,1.849C1528.863,682.229,1529.2,681.567,1529.513,683.987Z" transform="translate(-1328.754 -578.703)"/><path class="m" d="M1538.709,656.571s-.247,2.051.217,2.729-.963,5.065-2.425,5.065-.34-3.855-.464-4.412a1.937,1.937,0,0,0-.568-.938l.711-1Z" transform="translate(-1343.432 -572.668)"/><path class="m" d="M1526.485,645.694a7.186,7.186,0,0,0,0,3.275,5.476,5.476,0,0,0,1.41,2.8.779.779,0,0,0,.95.148c1.133-.639,3.8-2.314,3.634-3.834,0,0,.392-1.712.357-1.819s-.357-.892-.678-.892-3.281-.327-3.281-.327h-1.783Z" transform="translate(-1337.128 -564.727)"/><path class="l" d="M1520.416,637.3s.808,2.5,2.615,2.5,1.855-.547,2.473-.262.534,1.925,1.046,1.64.88-1.545,1.284-1-.713,1.522-.238,2.068.547.642,1.213,0a3.069,3.069,0,0,0,.975-2.5,4.681,4.681,0,0,0-.595-1.974s-3.091-1.5-3.186-1.441-2.259.158-2.259.158Z" transform="translate(-1333.066 -558.732)"/><path class="e" d="M1515.867,630.737s-1.089.647,1.241,1.669,7.385,2.138,9.233,1.6c0,0,.278-4-3-4.667s-4.232,1.708-4.232,1.708Z" transform="translate(-1329.758 -553.834)"/><path class="m" d="M1540.16,704.955a28,28,0,0,1-.885,5.079,2.482,2.482,0,0,1-.163.4c-.725,1.53-3.293,4.719-5.581,7.41-.177.206-.351.408-.519.6-1.849,2.149-3.4,3.843-3.458,3.864a9.484,9.484,0,0,1-1.461-1.236s1.062-1.8,2.317-3.832v0c1.164-1.878,2.491-3.946,3.3-4.95,1.669-2.095,2.317-8.049,2.317-8.049l1.141-.5,1.07.436Z" transform="translate(-1338.353 -605.149)"/><path class="n" d="M1556.892,682.473a7.416,7.416,0,0,1-2.063.148,3.217,3.217,0,0,1-.719-.148,2.946,2.946,0,0,1-1.355-.714s-1.153-8.283.636-10.26a1.162,1.162,0,0,1,.714-.4.009.009,0,0,1,.006,0h0l0,0c.143.049,2.431.913,2.776,5.267A24.436,24.436,0,0,1,1556.892,682.473Z" transform="translate(-1355.084 -582.667)"/><path class="n" d="M1534.625,682.661s-.648,5.955-2.317,8.049c-.8,1-2.131,3.073-3.3,4.95,0,0,0,0-.006,0-4.745-2.691-2.323-6.343-2.342-8.006s4.06,2.283,5.3,2.234,1.235-2.425,1.581-4.517-1.486-1.238-2.579-2,1.427-.048,2.283-.668-.525-4.611,0-7.227a4.859,4.859,0,0,1,2.014-3.079C1533.472,674.379,1534.625,682.661,1534.625,682.661Z" transform="translate(-1336.955 -583.569)"/><path class="n" d="M1550.527,732.939a38.3,38.3,0,0,1-4.965-.283c2.288-2.691,4.856-5.88,5.581-7.41.034.248.066.528.1.845A20.159,20.159,0,0,1,1550.527,732.939Z" transform="translate(-1350.383 -619.962)"/><path class="n" d="M1519.1,686.18c-1.521.285-4.674,3.692-4.237,4.913,0,0,0,.006,0,.009a4.13,4.13,0,0,1,.14.431c-.04-.045-.262-.588-.354-.816l-.043-.1-.014,0a6.4,6.4,0,0,1-.439-1.03s2.4-3.424,1.948-4.851,0-10.109,1.475-12.466c0,0-1.492,7.256-1.007,9.872S1520.622,685.894,1519.1,686.18Z" transform="translate(-1328.754 -583.475)"/><path class="m" d="M1522.094,759.431s-3.48.077-2.556,1.5,2.1,2.352,2.773,1.6a10.682,10.682,0,0,0,1.244-1.865Z" transform="translate(-1332.353 -643.505)"/><path class="m" d="M1494.277,738.5s-3.6.582-2.593,1.8,2.1,2.017,2.941,1.135a4.426,4.426,0,0,0,1.007-2.224Z" transform="translate(-1313.156 -629.091)"/><path class="h" d="M1539.847,678.43s1.473-.979,1.4-.124-.719,2.138-1.01,1.846-.639-.733-.639-.733Z" transform="translate(-1346.272 -587.395)"/><path class="h" d="M1534.462,677.234s-.5-1.294-.789-.692-.673,1.827-.264,1.788a3.216,3.216,0,0,0,1.053-.467Z" transform="translate(-1341.891 -586.311)"/><circle class="h" cx="0.675" cy="0.675" r="0.675" transform="translate(192.347 90.747)"/><ellipse class="n" cx="6.678" cy="4.243" rx="6.678" ry="4.243" transform="translate(267.021 200.349)"/><path class="n" d="M1767.966,990.261l.015.254A2.074,2.074,0,0,1,1767.966,990.261Z" transform="translate(-1503.547 -802.471)"/><path class="n" d="M1806.766,990.261a2.22,2.22,0,0,1-.023.328Z" transform="translate(-1530.251 -802.471)"/><path class="n" d="M1780.062,981.981l-.023.328c-.268,1.914-2.863,3.415-6.025,3.415-3.2,0-5.822-1.54-6.032-3.489l-.015-.254c0-2.068,2.708-3.743,6.047-3.743S1780.062,979.914,1780.062,981.981Z" transform="translate(-1503.547 -794.191)"/><path class="o" d="M1780.072,991.151l-1,13.989c0,1.473-2.3,2.665-5.141,2.665-2.411,0-4.432-.86-4.988-2.018a1.464,1.464,0,0,1-.153-.647l-.78-14.062c.21,1.948,2.829,3.489,6.032,3.489C1777.209,994.567,1779.8,993.065,1780.072,991.151Z" transform="translate(-1503.58 -803.033)"/><path class="l" d="M1780.892,982.38l-.022.292c-.158,1.132-1.236,2.1-2.771,2.619a7.7,7.7,0,0,1-1.7.359c-.154.016-.311.027-.47.034-.127.006-.258.009-.388.009-.213,0-.423-.007-.628-.024a7.547,7.547,0,0,1-.819-.1,7.02,7.02,0,0,1-1.158-.3c-1.538-.531-2.607-1.519-2.731-2.666l-.013-.226a2.694,2.694,0,0,1,1.228-2.11,5.708,5.708,0,0,1,1.717-.847c.173-.055.351-.1.534-.145a8.327,8.327,0,0,1,1.872-.209c.151,0,.3,0,.45.013q.311.013.608.052a6.838,6.838,0,0,1,2.714.9A2.877,2.877,0,0,1,1780.892,982.38Z" transform="translate(-1505.078 -794.763)"/><path class="p" d="M1778.572,905.139c-.009-.786-.692-2.316-.3-4.1,1.01-4.552-1.714-14.9-2.117-15.168-.256-.17-1.239,3.2-2.079,7.4a1.145,1.145,0,0,1,.364.1,1.206,1.206,0,0,1,0,2.2,1.184,1.184,0,0,1-.493.105,1.164,1.164,0,0,1-.191-.015.849.849,0,0,1-.123-.026c-.309,1.794-.569,3.644-.722,5.371a23.594,23.594,0,0,0,0,5.294,89.869,89.869,0,0,0,1.991,8.935c.25.933.5,1.813.719,2.6.6,2.126,1.059,3.575,1.059,3.575v.074c.179.015.361.022.544.022h.084c.13,0,.261,0,.388-.009.16-.007.317-.018.47-.034.024-.71.112-3.441.2-6.516C1778.484,911.149,1778.591,906.829,1778.572,905.139Zm-2.412-5.494a.778.778,0,0,1,.418.121.76.76,0,0,1,.175.148h0a.784.784,0,0,1-.13,1.154v0l0,0a.78.78,0,0,1-.459.148.788.788,0,0,1,0-1.577Zm-.538,9.651h0a.788.788,0,1,1,.13-1.156h0a.784.784,0,0,1-.13,1.154Zm1.818,3.431a1.172,1.172,0,0,1-.467.105h-.025a1.206,1.206,0,0,1-.12-2.406.565.565,0,0,1,.073,0c.016,0,.031,0,.047,0a1.188,1.188,0,0,1,.492.1,1.2,1.2,0,0,1,0,2.2Z" transform="translate(-1506.856 -730.574)"/><path class="p" d="M1794.3,910.816a1.182,1.182,0,0,1,.475.1,23,23,0,0,0,.377-3.194c-.016-3.35-1.393-9.027-1.834-9.458-.022-.022-.041-.031-.058-.026v0c-.346.114-3.362,7.03-4.07,11.319-.045.271-.08.531-.105.778,0,.026-.006.053-.007.08,0,.043-.009.086-.013.132-.033.368-.063.822-.092,1.347,0,.1-.01.2-.015.3s-.013.237-.018.359-.01.226-.016.343c-.011.25-.021.512-.031.782,0,.123-.009.247-.013.373,0,.056,0,.114-.006.173a1.025,1.025,0,0,1,.12-.006,1.186,1.186,0,0,1,.493.1,1.206,1.206,0,0,1,0,2.2,1.186,1.186,0,0,1-.493.1,1.169,1.169,0,0,1-.191-.015c-.016.673-.031,1.371-.044,2.081,0,.142-.006.284-.009.427-.022,1.134-.041,2.294-.056,3.434,0,.142,0,.285-.006.427s0,.284-.006.426c-.033,2.524-.052,4.893-.062,6.6.16-.007.317-.018.47-.034.135-.013.266-.03.4-.05.081-.012.161-.025.241-.04a7.03,7.03,0,0,0,1.064-.269c.189-.8.653-2.784,1.212-5.259.766-3.382,1.707-7.681,2.359-11.136h-.06a1.206,1.206,0,1,1,0-2.412Zm-2.833,9.6a.788.788,0,0,1,0-1.575.788.788,0,1,1,0,1.575Zm.881-14.02h0a.788.788,0,1,1,.13-1.157v0a.784.784,0,0,1-.13,1.154Z" transform="translate(-1517.771 -739.094)"/><path class="p" d="M1770.4,947.315c-.019-.276-.038-.562-.058-.855a.711.711,0,0,1-.2.028.776.776,0,0,1-.643-.337.763.763,0,0,1-.142-.45.79.79,0,0,1,.785-.788.548.548,0,0,1,.1.007c-.008-.115-.017-.232-.024-.349-.259-3.847-.547-8.138-.64-9.517a10.4,10.4,0,0,0-1.889-4.568c-.774-1.127-1.559-1.9-1.88-1.8-.288.087-.484,1.4-.572,3.007a1.142,1.142,0,0,1,.225-.044,1.074,1.074,0,0,1,.12-.006,1.286,1.286,0,0,1,.129.007.444.444,0,0,1,.062.009,1.138,1.138,0,0,1,.3.089,1.2,1.2,0,0,1,.652,1.48,1.2,1.2,0,0,1-.652.722,1.128,1.128,0,0,1-.211.072,1.246,1.246,0,0,1-.281.033,1.17,1.17,0,0,1-.191-.015.9.9,0,0,1-.123-.027.823.823,0,0,1-.087-.028,14.926,14.926,0,0,0,.333,3.733c.178.489.667,2.041,1.246,3.916a1.146,1.146,0,0,1,.475-.154.609.609,0,0,1,.072,0,.46.46,0,0,1,.047,0,1.248,1.248,0,0,1,.334.046,1.111,1.111,0,0,1,.158.059,1.206,1.206,0,0,1,.408,1.906,1.253,1.253,0,0,1-.408.3,1.145,1.145,0,0,1-.4.1c.173.563.347,1.131.516,1.686.68,2.233,1.291,4.253,1.517,5a6.461,6.461,0,0,0,.642.189c.047.012.095.024.144.033.121.028.247.053.373.074C1770.6,950.153,1770.509,948.867,1770.4,947.315Zm-2.177-11.453a.778.778,0,0,1,.418.121.756.756,0,0,1,.175.148h0a.784.784,0,0,1-.13,1.154h0l0,0a.78.78,0,0,1-.459.148.788.788,0,0,1,0-1.577Z" transform="translate(-1501.629 -760.058)"/><path class="l" d="M1765.588,931.663a1.151,1.151,0,0,0-.225.045c.089-1.609.284-2.919.572-3.007,0,0-.062,1.278-.037,2.973a.437.437,0,0,0-.062-.009c-.043,0-.086-.007-.129-.007A1.1,1.1,0,0,0,1765.588,931.663Z" transform="translate(-1501.754 -760.076)"/><path class="l" d="M1767.69,953.257a1.25,1.25,0,0,0-.334-.046c-.016,0-.031,0-.047,0a.608.608,0,0,0-.072,0,1.147,1.147,0,0,0-.475.154c-.58-1.875-1.069-3.427-1.246-3.916a14.924,14.924,0,0,1-.333-3.733.837.837,0,0,0,.087.028.916.916,0,0,0,.123.027,1.17,1.17,0,0,0,.191.015,1.249,1.249,0,0,0,.281-.033,15.47,15.47,0,0,0,.877,4.758A25.845,25.845,0,0,1,1767.69,953.257Z" transform="translate(-1501.629 -771.798)"/><path class="l" d="M1775.149,983.513a6.519,6.519,0,0,1-.642-.189c-.226-.75-.837-2.77-1.517-5-.169-.554-.343-1.122-.516-1.686a1.145,1.145,0,0,0,.4-.1,1.249,1.249,0,0,0,.408-.3C1773.982,978.771,1774.7,981.64,1775.149,983.513Z" transform="translate(-1506.651 -792.813)"/><path class="q" d="M1785.872,914.959c-.087,3.075-.176,5.806-.2,6.516-.154.016-.311.026-.471.034-.127.006-.257.009-.388.009h-.084l-.262-8.671a1.171,1.171,0,0,0,.467-.105,1.2,1.2,0,0,0,0-2.2,1.188,1.188,0,0,0-.493-.1c-.016,0-.031,0-.047,0l-.281-9.348,0,0h0a.784.784,0,0,0,.13-1.153v0a.76.76,0,0,0-.175-.148l-.418-13.9c.4.268,3.126,10.616,2.116,15.167-.4,1.787.287,3.317.3,4.1C1786.087,906.842,1785.98,911.162,1785.872,914.959Z" transform="translate(-1514.352 -730.588)"/><path class="l" d="M1789.487,956.994c0,4.382,0,10.765,0,13.4-.13.021-.262.037-.4.05-.154.016-.311.027-.47.034.01-1.708.029-4.077.062-6.6,0-.142,0-.283.006-.426s0-.285.006-.427c.015-1.14.034-2.3.056-3.434,0-.143.006-.285.009-.427.013-.71.028-1.408.044-2.081a1.222,1.222,0,0,0,.683-.09Z" transform="translate(-1517.771 -779.561)"/><path class="l" d="M1793.823,898.243v.006c-.114.328-3.771,10.88-3.773,15.416v.667a1.185,1.185,0,0,0-.492-.1,1.026,1.026,0,0,0-.12.006c0-.059,0-.117.006-.173,0-.126.009-.25.013-.373.01-.271.021-.532.031-.782.006-.117.01-.231.016-.343s.01-.242.018-.359.01-.2.015-.3c.028-.525.059-.979.092-1.347,0-.046.009-.089.013-.132,0-.026,0-.053.007-.08.025-.247.061-.507.105-.778C1790.462,905.273,1793.478,898.357,1793.823,898.243Z" transform="translate(-1518.333 -739.101)"/><path class="o" d="M1795.545,912.029a1.206,1.206,0,0,0,1.207,1.205h.06c-.652,3.454-1.593,7.754-2.359,11.136-.559,2.474-1.023,4.458-1.213,5.259a7.023,7.023,0,0,1-1.063.269l1.1-9.815a.787.787,0,0,0,1.433-.45.789.789,0,0,0-.788-.788.777.777,0,0,0-.529.207l1.411-12.65v0a.784.784,0,0,0,.13-1.153v0l.78-7v-.006l.059.025c.441.431,1.818,6.108,1.834,9.457a22.991,22.991,0,0,1-.377,3.195,1.184,1.184,0,0,0-.475-.1A1.206,1.206,0,0,0,1795.545,912.029Z" transform="translate(-1520.221 -739.101)"/><path class="o" d="M1771.794,947.315c-.019-.276-.038-.562-.058-.855a.709.709,0,0,1-.2.028.776.776,0,0,1-.643-.337.763.763,0,0,1-.142-.45.79.79,0,0,1,.785-.788.545.545,0,0,1,.1.007c-.007-.115-.016-.232-.024-.349-.259-3.847-.547-8.138-.64-9.517a10.4,10.4,0,0,0-1.889-4.568c-.774-1.127-1.559-1.9-1.88-1.8l.679,3.368a1.2,1.2,0,0,1,.238,1.174l3.543,17.565c.121.028.247.053.373.074C1771.987,950.153,1771.9,948.867,1771.794,947.315Zm-1.714-10.028h0l0,0a.781.781,0,0,1-.459.148.788.788,0,0,1,0-1.577.779.779,0,0,1,.418.121.753.753,0,0,1,.175.148h0a.784.784,0,0,1-.13,1.154Z" transform="translate(-1503.02 -760.058)"/><path class="r" d="M1782.13,991.312l-1,13.989c0,1.473-2.3,2.665-5.141,2.665-2.411,0-4.432-.86-4.988-2.018l0-.008c6.757-6.18,5.1-11.212,5.1-11.212C1779.267,994.728,1781.862,993.227,1782.13,991.312Z" transform="translate(-1505.638 -803.195)"/><ellipse class="n" cx="6.678" cy="4.243" rx="6.678" ry="4.243" transform="translate(248.045 190.008)"/><path class="n" d="M1820,957.4l.015.254A2.055,2.055,0,0,1,1820,957.4Z" transform="translate(-1539.378 -779.838)"/><path class="n" d="M1745.814,957.044a2.186,2.186,0,0,1-.024.328Z" transform="translate(-1488.275 -779.595)"/><path class="n" d="M1719.109,948.764l-.024.328c-.268,1.914-2.863,3.415-6.025,3.415-3.2,0-5.823-1.539-6.032-3.489l-.015-.254c0-2.067,2.708-3.743,6.047-3.743S1719.109,946.7,1719.109,948.764Z" transform="translate(-1461.57 -771.315)"/><path class="o" d="M1719.12,957.934l-.995,13.989c0,1.473-2.3,2.666-5.141,2.666-2.411,0-4.432-.86-4.988-2.019a1.458,1.458,0,0,1-.153-.647l-.779-14.062c.21,1.948,2.829,3.489,6.032,3.489C1716.257,961.35,1718.852,959.849,1719.12,957.934Z" transform="translate(-1461.604 -780.158)"/><path class="l" d="M1719.94,949.163l-.022.292c-.158,1.133-1.236,2.1-2.771,2.619a7.718,7.718,0,0,1-1.7.359c-.154.016-.31.027-.47.034-.127.006-.257.009-.387.009-.213,0-.423-.007-.629-.024a7.619,7.619,0,0,1-.819-.1,7.068,7.068,0,0,1-1.158-.3c-1.538-.531-2.607-1.519-2.731-2.667l-.013-.226a2.7,2.7,0,0,1,1.227-2.11,5.725,5.725,0,0,1,1.717-.847c.173-.055.351-.1.534-.145a8.358,8.358,0,0,1,1.872-.209c.151,0,.3,0,.449.013.207.009.41.026.608.052a6.827,6.827,0,0,1,2.714.9A2.875,2.875,0,0,1,1719.94,949.163Z" transform="translate(-1463.102 -771.888)"/><path class="h" d="M1717.62,871.922c-.009-.785-.692-2.316-.3-4.1,1.01-4.552-1.714-14.9-2.116-15.168-.256-.17-1.239,3.2-2.079,7.4a1.147,1.147,0,0,1,.364.1,1.206,1.206,0,0,1,0,2.2,1.219,1.219,0,0,1-.683.09.884.884,0,0,1-.123-.027c-.309,1.794-.569,3.644-.722,5.371a23.621,23.621,0,0,0,0,5.294,90.03,90.03,0,0,0,1.99,8.936c.25.933.5,1.813.719,2.6.6,2.125,1.059,3.574,1.059,3.574v.074c.179.015.361.022.544.022.028,0,.056,0,.085,0,.13,0,.26,0,.388-.009.16-.007.316-.018.47-.034.024-.71.113-3.441.2-6.516C1717.531,877.932,1717.639,873.613,1717.62,871.922Zm-2.412-5.494a.779.779,0,0,1,.418.121.762.762,0,0,1,.175.148v0a.784.784,0,0,1-.13,1.153v0l0,0a.777.777,0,0,1-.458.148.788.788,0,1,1,0-1.576Zm-.538,9.651v0a.788.788,0,1,1,.13-1.157v0a.784.784,0,0,1-.13,1.153Zm1.818,3.431a1.165,1.165,0,0,1-.467.1h-.025a1.182,1.182,0,0,1-.191-.015,1.207,1.207,0,0,1,.071-2.392.6.6,0,0,1,.073,0,.47.47,0,0,1,.047,0,1.187,1.187,0,0,1,.493.105,1.2,1.2,0,0,1,0,2.2Z" transform="translate(-1464.88 -707.699)"/><path class="h" d="M1733.35,877.6a1.183,1.183,0,0,1,.475.1,23.008,23.008,0,0,0,.377-3.194c-.016-3.35-1.393-9.027-1.834-9.458-.022-.022-.041-.031-.057-.027l0,0c-.346.114-3.361,7.031-4.07,11.32-.044.271-.08.531-.1.778,0,.027-.006.053-.007.08,0,.043-.009.086-.013.132-.032.368-.064.822-.092,1.347,0,.1-.01.2-.015.3s-.013.237-.018.359-.01.226-.016.343c-.01.25-.021.512-.031.782,0,.123-.009.247-.013.373,0,.056,0,.114-.006.173a1.073,1.073,0,0,1,.12-.006,1.187,1.187,0,0,1,.492.1,1.206,1.206,0,0,1,0,2.2,1.187,1.187,0,0,1-.492.1,1.125,1.125,0,0,1-.191-.015c-.016.673-.031,1.371-.044,2.081,0,.142-.006.284-.009.427-.022,1.134-.041,2.294-.056,3.434,0,.142,0,.285-.006.427s0,.284-.006.426c-.032,2.524-.052,4.894-.062,6.6.16-.007.316-.018.47-.034.135-.013.266-.03.4-.05.082-.012.161-.025.241-.04a7.052,7.052,0,0,0,1.063-.269c.189-.8.654-2.785,1.213-5.259.766-3.382,1.707-7.681,2.359-11.136h-.061a1.206,1.206,0,1,1,0-2.412Zm-2.833,9.6a.788.788,0,1,1,.788-.787A.781.781,0,0,1,1730.516,887.2Zm.881-14.02h0a.788.788,0,1,1,.13-1.156h0a.784.784,0,0,1-.13,1.154Z" transform="translate(-1475.794 -716.219)"/><path class="h" d="M1709.452,914.1q-.029-.415-.058-.855a.712.712,0,0,1-.2.028.775.775,0,0,1-.643-.337.762.762,0,0,1-.142-.449.791.791,0,0,1,.785-.788.551.551,0,0,1,.1.007c-.007-.115-.016-.232-.024-.349-.259-3.847-.547-8.138-.64-9.517a10.4,10.4,0,0,0-1.889-4.568c-.773-1.127-1.559-1.9-1.88-1.8-.289.087-.484,1.4-.573,3.007a1.123,1.123,0,0,1,.225-.044,1.01,1.01,0,0,1,.12-.006,1.276,1.276,0,0,1,.129.007.478.478,0,0,1,.062.009,1.139,1.139,0,0,1,.3.089,1.18,1.18,0,0,1,.414.306,1.2,1.2,0,0,1,.3.8,1.182,1.182,0,0,1-.062.379,1.2,1.2,0,0,1-.652.722,1.121,1.121,0,0,1-.211.073,1.264,1.264,0,0,1-.281.032,1.175,1.175,0,0,1-.191-.015.858.858,0,0,1-.123-.027.8.8,0,0,1-.087-.028,14.92,14.92,0,0,0,.333,3.733c.177.49.667,2.041,1.246,3.916a1.137,1.137,0,0,1,.475-.154.551.551,0,0,1,.073,0h.047a1.246,1.246,0,0,1,.334.046,1.107,1.107,0,0,1,.158.059,1.206,1.206,0,0,1,.408,1.906,1.25,1.25,0,0,1-.408.3,1.138,1.138,0,0,1-.4.1c.173.563.348,1.131.516,1.686.68,2.233,1.291,4.253,1.518,5a6.518,6.518,0,0,0,.642.189c.047.012.095.024.144.032.121.028.247.053.373.074C1709.644,916.937,1709.557,915.651,1709.452,914.1Zm-2.177-11.453a.778.778,0,0,1,.418.121.755.755,0,0,1,.174.148h0a.784.784,0,0,1-.13,1.154v0l0,0a.776.776,0,0,1-.458.148.788.788,0,1,1,0-1.577Z" transform="translate(-1459.653 -737.183)"/><path class="l" d="M1706.738,920.04a1.249,1.249,0,0,0-.334-.046h-.047a.541.541,0,0,0-.073,0,1.134,1.134,0,0,0-.475.154c-.58-1.875-1.069-3.427-1.246-3.916a14.921,14.921,0,0,1-.333-3.733.827.827,0,0,0,.087.028.858.858,0,0,0,.123.027,1.169,1.169,0,0,0,.191.015,1.264,1.264,0,0,0,.281-.032,15.462,15.462,0,0,0,.877,4.758A25.788,25.788,0,0,1,1706.738,920.04Z" transform="translate(-1459.653 -748.922)"/><path class="l" d="M1714.2,950.3a6.5,6.5,0,0,1-.642-.189c-.226-.75-.837-2.77-1.518-5-.168-.554-.343-1.122-.516-1.686a1.138,1.138,0,0,0,.4-.1,1.252,1.252,0,0,0,.408-.3C1713.03,945.554,1713.742,948.424,1714.2,950.3Z" transform="translate(-1464.675 -769.938)"/><path class="q" d="M1724.919,881.742c-.088,3.075-.176,5.806-.2,6.516-.154.016-.31.027-.47.034-.127.006-.257.009-.388.009-.028,0-.056,0-.084,0l-.262-8.671a1.167,1.167,0,0,0,.467-.1,1.2,1.2,0,0,0,0-2.2,1.183,1.183,0,0,0-.493-.105h-.047l-.281-9.348,0,0v0a.784.784,0,0,0,.13-1.153v0a.766.766,0,0,0-.175-.148l-.418-13.9c.4.268,3.126,10.615,2.116,15.168-.4,1.786.287,3.317.3,4.1C1725.135,873.627,1725.027,877.946,1724.919,881.742Z" transform="translate(-1472.376 -707.713)"/><path class="l" d="M1728.535,923.778c0,4.382,0,10.765,0,13.4-.13.021-.262.037-.4.05-.154.016-.31.027-.47.034.01-1.708.03-4.077.062-6.6,0-.142,0-.282.006-.426s0-.285.006-.427c.015-1.14.034-2.3.056-3.434,0-.143.006-.286.009-.427.013-.71.028-1.408.044-2.081a1.138,1.138,0,0,0,.191.015A1.187,1.187,0,0,0,1728.535,923.778Z" transform="translate(-1475.794 -756.686)"/><path class="l" d="M1732.871,865.026v.006c-.114.328-3.771,10.88-3.773,15.416v.667a1.188,1.188,0,0,0-.492-.1,1.072,1.072,0,0,0-.12.006c0-.059,0-.117.006-.173,0-.125.009-.25.013-.373.01-.271.021-.532.031-.782.006-.117.01-.231.017-.343s.01-.243.018-.359.01-.2.015-.3c.028-.525.059-.979.092-1.347l.013-.132c0-.027,0-.053.007-.08.025-.247.061-.507.1-.778C1729.51,872.057,1732.526,865.14,1732.871,865.026Z" transform="translate(-1476.357 -716.225)"/><path class="o" d="M1734.594,878.812a1.206,1.206,0,0,0,1.207,1.205c.021,0,.04,0,.061,0-.652,3.455-1.593,7.754-2.359,11.136-.559,2.474-1.023,4.457-1.213,5.259a7.041,7.041,0,0,1-1.063.269l1.1-9.815a.787.787,0,0,0,1.433-.45.789.789,0,0,0-.788-.788.777.777,0,0,0-.529.207l1.411-12.651h0a.784.784,0,0,0,.13-1.154h0l.779-7v-.006l.059.025c.441.43,1.817,6.108,1.834,9.458a23.032,23.032,0,0,1-.377,3.194,1.18,1.18,0,0,0-.475-.1A1.206,1.206,0,0,0,1734.594,878.812Z" transform="translate(-1478.245 -716.225)"/><path class="o" d="M1710.842,914.1q-.029-.415-.057-.855a.713.713,0,0,1-.2.028.775.775,0,0,1-.643-.337.762.762,0,0,1-.142-.449.791.791,0,0,1,.785-.788.55.55,0,0,1,.1.007c-.007-.115-.016-.232-.023-.349-.259-3.847-.547-8.138-.641-9.517a10.4,10.4,0,0,0-1.889-4.568c-.773-1.127-1.559-1.9-1.879-1.8l.679,3.367a1.2,1.2,0,0,1,.3.8,1.182,1.182,0,0,1-.062.379l3.544,17.565c.121.028.247.053.373.074C1711.035,916.937,1710.947,915.651,1710.842,914.1Zm-1.714-10.028v0l0,0a.777.777,0,0,1-.458.148.788.788,0,1,1,0-1.577.778.778,0,0,1,.418.121.752.752,0,0,1,.174.148h0a.784.784,0,0,1-.13,1.154Z" transform="translate(-1461.044 -737.183)"/><path class="r" d="M1721.177,958.095l-.995,13.989c0,1.473-2.3,2.666-5.141,2.666-2.411,0-4.432-.86-4.988-2.019l0-.008c6.757-6.18,5.1-11.212,5.1-11.212C1718.314,961.511,1720.909,960.01,1721.177,958.095Z" transform="translate(-1463.662 -780.319)"/></svg>