<svg xmlns="http://www.w3.org/2000/svg" width="24.7" height="24.678" viewBox="0 0 24.7 24.678"><defs><style>.a{fill:#fff;}</style></defs><g transform="translate(-1160.597 -210.961)"><path class="a" d="M147.149,159.644a12.339,12.339,0,1,0,12.349,12.34,12.36,12.36,0,0,0-12.349-12.34Zm0,23.1a10.764,10.764,0,1,1,10.773-10.762,10.781,10.781,0,0,1-10.773,10.762Z" transform="translate(1025.8 51.317)"/><path class="a" d="M219.209,203.192c-.291-.1-.558-.2-.807-.295v-4.2a2.7,2.7,0,0,1,1.172.542.788.788,0,0,0,1.064-1.162,4.368,4.368,0,0,0-2.236-.978v-.891a.788.788,0,0,0-1.575,0v.952c-.144.03-.291.067-.441.112a3.426,3.426,0,0,0-2.348,2.689,3,3,0,0,0,.981,2.961,8.534,8.534,0,0,0,1.808,1.03v5.27a3.574,3.574,0,0,1-1.989-.722.788.788,0,1,0-.863,1.318,5.107,5.107,0,0,0,2.852.98v1a.788.788,0,1,0,1.575,0v-1.056a4.135,4.135,0,0,0,3.3-3.4,3.624,3.624,0,0,0-2.5-4.145Zm-2.382-.979a5.312,5.312,0,0,1-.835-.526,1.45,1.45,0,0,1-.406-1.431,1.871,1.871,0,0,1,1.241-1.468Zm3.327,4.864a2.59,2.59,0,0,1-1.751,2.043v-4.543l.282.1A2.07,2.07,0,0,1,220.153,207.077Z" transform="translate(955.257 19.294)"/></g></svg>