<svg xmlns="http://www.w3.org/2000/svg" width="311.237" height="196.469" viewBox="0 0 311.237 196.469"><defs><style>.a,.b{fill:#4a43da;}.a{opacity:0.1;}.c{fill:#4646e0;}.d{fill:none;stroke:#001f37;stroke-linecap:round;stroke-miterlimit:10;stroke-width:0.371px;}.e{fill:#fa8a00;}.f{fill:#fff;}.g{mix-blend-mode:screen;}.g,.q,.r{isolation:isolate;}.h{fill:#ffac00;}.i{fill:#fda893;}.j{fill:#1c47c1;}.k{fill:#0172d0;}.l{fill:#033352;}.m{fill:#043c62;}.n{fill:#001f37;}.o{fill:#25258c;}.p{fill:#fd896b;}.q,.t{opacity:0.3;}.q,.r{mix-blend-mode:multiply;}.r{opacity:0.5;}.s{fill:#c3c6d5;}.u{fill:#20363c;}.v{fill:#1c1c68;}.w{fill:#d1e6f7;}.x{fill:#ffeae6;}</style></defs><g transform="translate(-213.791 -120.604)"><path class="a" d="M221.514,303.59s-18.917-63.863,15.8-83.207,55.642,11.519,67.849,27.629,64.935,48,96.909,18.008c33.685-31.6,50.4-40.566,74.43-41.329s14.115,25.049,34.333,35.032,10.407,41.986-8.339,44.3Z"/><path class="b" d="M249.362,304.469h1.2l-4.425-11.493a14.459,14.459,0,0,1,1.662-4.216c1.828-3.193,3.207-6.92.868-6.662-2.03.224-3.464,4.523-3.364,8.711l-1.59-4.129a21.012,21.012,0,0,1-.541-5.494c.295-5.075-.361-9.935-2.816-8.609s-1.169,9.668,2.518,15.032l.818,2.125c-2.619-3.956-7.618-7.173-9.539-5.787s1.614,3.216,5.111,4.36a13.142,13.142,0,0,1,4.928,2.726l3.863,10.035c-4.166-6.253-12.062-11.323-15.1-9.13s2.56,5.1,8.109,6.918a20.911,20.911,0,0,1,7.8,4.3Z"/><path class="c" d="M265.095,303.647c-1.322-10.46-3.322-21.309-5.491-28.338-2.834-9.182-6.379-15.268-10.536-18.086a.6.6,0,0,0-.677,1c7.268,4.927,12.655,20.915,15.6,46.266Z"/><path class="c" d="M256.4,267.334s4.945-.973,2.894-9.6C259.289,257.734,252.142,261.37,256.4,267.334Z"/><path class="c" d="M257.683,271.727s-.7-4.991-9.425-3.424C248.258,268.3,251.491,275.641,257.683,271.727Z"/><path class="c" d="M251.519,260.267s1.007-4.938-7.744-6.37C243.776,253.9,244.377,261.893,251.519,260.267Z"/><path class="c" d="M260.545,280.485s4.983.757,5.971-8.056C266.516,272.429,258.561,273.434,260.545,280.485Z"/><path class="c" d="M261.179,285.159s.177-5.037-8.69-5C252.489,280.157,254.4,287.944,261.179,285.159Z"/><path class="c" d="M262.683,291.472s4.968.851,6.123-7.941C268.805,283.532,260.832,284.385,262.683,291.472Z"/><line class="d" x2="310.866" transform="translate(213.976 304.072)"/><line class="d" x2="121.966" transform="translate(248.22 315.596)"/><line class="d" x2="10.442" transform="translate(371.746 315.596)"/><path class="e" d="M274.6,242.49l.44-.111c.2.477.4.933.6,1.354l-.434.127C275,243.433,274.795,242.972,274.6,242.49Zm-1.008-2.788.45-.086q.228.72.469,1.389l-.446.1Q273.818,240.428,273.588,239.7Zm-.418-1.41q-.192-.691-.371-1.419l.456-.068q.177.723.369,1.41Zm-.7-2.844q-.151-.7-.287-1.43l.459-.052q.135.725.285,1.422Zm-.534-2.863q-.115-.707-.213-1.437l.461-.038q.1.726.211,1.43Zm-.391-2.877q-.079-.712-.143-1.442l.461-.025q.066.726.143,1.436Zm-.251-2.885q-.048-.715-.079-1.445l.463-.012c.02.484.045.964.079,1.438Zm-.126-2.891q-.015-.716-.015-1.445h.464c0,.484.006.964.015,1.44Zm0-2.891c.009-.478.026-.96.047-1.445l.464.013q-.033.724-.048,1.439Zm.126-2.889q.047-.718.111-1.443l.462.025q-.063.722-.11,1.437Zm.253-2.885q.079-.716.174-1.44l.46.037q-.095.719-.172,1.433Zm.378-2.876q.109-.714.237-1.434l.458.05q-.126.716-.236,1.427Zm.505-2.864q.143-.712.3-1.426l.456.062q-.158.711-.3,1.42Zm.638-2.849q.175-.708.368-1.417l.453.075q-.192.706-.366,1.41Zm.77-2.829q.209-.7.435-1.405l.45.088q-.225.7-.433,1.4Zm.9-2.8q.243-.7.505-1.392l.444.1q-.261.692-.5,1.385Zm1.045-2.776q.278-.688.575-1.375l.44.115q-.3.684-.573,1.368Zm1.186-2.74q.314-.679.648-1.355l.433.129q-.332.673-.645,1.348Zm1.332-2.7q.35-.667.722-1.332l.424.144q-.368.661-.717,1.325Zm1.481-2.653q.388-.656.795-1.307l.417.158q-.406.648-.791,1.3Zm1.629-2.6q.425-.641.871-1.277l.407.172q-.444.633-.866,1.27Zm1.78-2.539q.464-.624.946-1.244l.4.187q-.481.616-.941,1.238Zm1.931-2.471q.5-.607,1.022-1.208l.384.2q-.519.6-1.017,1.2Zm2.082-2.4q.538-.588,1.1-1.168l.37.216q-.554.577-1.089,1.161Zm2.229-2.314q.573-.566,1.169-1.125l.356.23q-.591.554-1.161,1.117Zm2.374-2.226q.61-.542,1.239-1.077l.341.244q-.626.531-1.232,1.071Z"/><path class="e" d="M294.225,175.972l.838-2.8-3.536.836Z"/><path class="f" d="M408.244,168.157h1.492a.4.4,0,1,0,0-.805h-1.492a.4.4,0,0,0,0,.805Z"/><g class="g"><path class="e" d="M314.389,153.421a8.682,8.682,0,0,0-.041,2.262l-2.235.877,1.643,4.192,2.235-.877a8.627,8.627,0,0,0,1.564,1.628l-.96,2.2,4.126,1.8.96-2.2a8.646,8.646,0,0,0,2.26.04l.878,2.236,4.19-1.644-.876-2.235a8.64,8.64,0,0,0,1.631-1.564l2.2.96,1.8-4.126-2.2-.96a8.645,8.645,0,0,0,.04-2.257l2.235-.879-1.642-4.192-2.239.88a8.563,8.563,0,0,0-1.567-1.631l.961-2.2-4.124-1.8-.961,2.2a8.694,8.694,0,0,0-2.259-.041l-.877-2.235-4.187,1.641.872,2.237a8.576,8.576,0,0,0-1.627,1.562l-2.2-.96-1.8,4.126Zm2.743-1.258a6.379,6.379,0,1,1,3.291,8.4A6.384,6.384,0,0,1,317.132,152.162Z"/><path class="h" d="M323.7,163.732a9,9,0,0,1-1.8-.031l-1,2.28-4.791-2.092,1-2.28a8.947,8.947,0,0,1-1.245-1.3l-2.318.909-1.908-4.869,2.317-.91a9.141,9.141,0,0,1,.032-1.8l-2.279-.995,2.092-4.792,2.28,1a8.992,8.992,0,0,1,1.3-1.243l-.9-2.32,4.863-1.906.908,2.317a9.061,9.061,0,0,1,1.8.032l1-2.283,4.789,2.092-1,2.282a8.922,8.922,0,0,1,1.246,1.3l2.322-.913,1.906,4.868-2.318.911a9.028,9.028,0,0,1-.031,1.8l2.281,1-2.093,4.791-2.28-1a8.994,8.994,0,0,1-1.3,1.245l.909,2.317-4.866,1.91Zm3.989-2.159.225-.166a8.24,8.24,0,0,0,1.563-1.5l.174-.217,2.121.926,1.512-3.461-2.122-.926.041-.275a8.28,8.28,0,0,0,.038-2.162l-.031-.277,2.156-.848-1.376-3.516-2.161.849-.165-.225a8.228,8.228,0,0,0-1.5-1.563l-.219-.174.927-2.123-3.458-1.51-.928,2.123-.275-.041a8.279,8.279,0,0,0-2.164-.039l-.277.031-.846-2.156-3.511,1.376.841,2.159-.224.165a8.234,8.234,0,0,0-1.559,1.5l-.173.218-2.121-.926-1.511,3.46,2.12.926-.042.276a8.385,8.385,0,0,0-.039,2.167l.032.277-2.156.846,1.378,3.516,2.155-.846.166.224a8.249,8.249,0,0,0,1.5,1.56l.218.174-.926,2.121,3.46,1.511.926-2.121.276.042a8.3,8.3,0,0,0,2.164.037l.277-.031.848,2.157,3.514-1.379Zm-7.415-.679a6.742,6.742,0,1,1,2.69.564A6.689,6.689,0,0,1,320.278,160.894Zm-2.813-8.587a6.014,6.014,0,1,0,5.518-3.6A5.98,5.98,0,0,0,317.465,152.307Z"/></g><g class="g"><path class="e" d="M298.555,167.5a6.328,6.328,0,0,0-.03,1.645l-1.624.638,1.195,3.049,1.625-.638a6.306,6.306,0,0,0,1.137,1.184l-.7,1.6,3,1.31.7-1.6a6.292,6.292,0,0,0,1.643.029l.639,1.626,3.047-1.2-.637-1.626a6.294,6.294,0,0,0,1.186-1.138l1.6.7,1.311-3-1.6-.7a6.325,6.325,0,0,0,.029-1.642l1.625-.639-1.194-3.049-1.629.64a6.251,6.251,0,0,0-1.14-1.186l.7-1.6-3-1.31-.7,1.6a6.3,6.3,0,0,0-1.643-.03l-.637-1.625-3.046,1.194.634,1.627a6.27,6.27,0,0,0-1.183,1.137l-1.6-.7-1.31,3Zm1.995-.915a4.64,4.64,0,1,1,2.394,6.109A4.644,4.644,0,0,1,300.549,166.582Z"/><path class="h" d="M305.33,175a6.509,6.509,0,0,1-1.309-.022l-.724,1.658-3.485-1.522.724-1.659a6.588,6.588,0,0,1-.905-.942l-1.685.662-1.388-3.541,1.686-.662a6.523,6.523,0,0,1,.023-1.31l-1.658-.724,1.521-3.485,1.658.724a6.511,6.511,0,0,1,.942-.9l-.658-1.687,3.536-1.386.661,1.686a6.621,6.621,0,0,1,1.308.023l.724-1.66,3.483,1.521-.724,1.659a6.5,6.5,0,0,1,.907.945l1.689-.663,1.387,3.541-1.685.663a6.6,6.6,0,0,1-.023,1.306l1.659.725-1.523,3.485-1.658-.724a6.564,6.564,0,0,1-.945.906l.661,1.685-3.539,1.389Zm2.9-1.57.164-.12a6.014,6.014,0,0,0,1.136-1.09l.127-.157,1.542.673,1.1-2.517-1.543-.673.03-.2a6.045,6.045,0,0,0,.027-1.573l-.023-.2,1.569-.617-1-2.558-1.572.618-.12-.164a5.98,5.98,0,0,0-1.09-1.136l-.16-.127.674-1.544-2.515-1.1-.674,1.544-.2-.03a6.009,6.009,0,0,0-1.574-.028l-.2.022-.615-1.569-2.554,1,.611,1.571-.163.12a6.01,6.01,0,0,0-1.133,1.088l-.127.159-1.542-.674-1.1,2.517,1.542.673-.03.2a6.02,6.02,0,0,0-.028,1.576l.023.2-1.568.615,1,2.558,1.567-.615.121.163a6.007,6.007,0,0,0,1.09,1.134l.158.126-.674,1.543,2.517,1.1.674-1.542.2.03a6.036,6.036,0,0,0,1.574.028l.2-.023L306.29,176l2.556-1Zm-5.393-.494a4.905,4.905,0,1,1,1.957.41A4.866,4.866,0,0,1,302.838,172.934Zm-2.046-6.246a4.373,4.373,0,1,0,4.014-2.622A4.349,4.349,0,0,0,300.792,166.688Z"/></g><path class="e" d="M333.633,198.226l.036-.412q.832.072,1.643.122l-.026.412Q334.471,198.3,333.633,198.226Zm-3.3-.4.065-.408q.82.131,1.63.225l-.049.41Q331.165,197.961,330.337,197.83Zm-3.253-.68.106-.4c.51.135,1.047.262,1.6.377l-.085.4C328.145,197.415,327.6,197.287,327.084,197.15Zm-3.158-1.043.154-.384c.5.2,1.021.391,1.539.561l-.129.392C324.964,196.5,324.438,196.313,323.926,196.107Zm-3-1.448.205-.359c.47.269.958.526,1.448.763l-.18.372C321.9,195.194,321.409,194.933,320.93,194.659Zm-2.767-1.85.254-.326c.434.336.882.658,1.327.955l-.228.343C319.061,193.48,318.607,193.153,318.163,192.81Zm-2.488-2.205.293-.29c.385.387.784.766,1.189,1.125l-.274.309C316.472,191.383,316.065,191,315.675,190.6Zm-2.2-2.493.325-.255c.337.43.689.855,1.047,1.261l-.31.272C314.178,188.978,313.82,188.547,313.479,188.111Zm-1.913-2.713.349-.221c.3.469.605.928.912,1.364l-.339.237C312.178,186.337,311.867,185.873,311.565,185.4Zm-1.657-2.874.366-.192q.389.743.79,1.439l-.358.206Q310.3,183.275,309.908,182.524Zm-1.43-2.991.379-.165q.335.769.684,1.494l-.373.179Q308.817,180.309,308.478,179.533Z"/><path class="e" d="M335.134,196.472l2.752,1.811-2.945,1.478Z"/><path class="e" d="M316.39,180.5l.034-.411c.46.038.93.057,1.4.057l.232,0,.006.413h-.239C317.342,180.558,316.861,180.539,316.39,180.5Zm3.293-.454c.54-.057,1.083-.141,1.614-.248l.081.4c-.544.109-1.1.195-1.651.253ZM313.1,179.9l.114-.4a16.1,16.1,0,0,0,1.588.371l-.074.407A16.612,16.612,0,0,1,313.1,179.9Zm9.777-.5c.522-.156,1.041-.338,1.54-.54l.155.383c-.512.207-1.043.393-1.577.553Zm3.022-1.222c.482-.251.955-.528,1.408-.823l.226.346c-.464.3-.95.587-1.443.843Zm2.725-1.782a15.9,15.9,0,0,0,1.212-1.089l.292.292a16,16,0,0,1-1.244,1.118Zm2.3-2.3a14.948,14.948,0,0,0,.954-1.319l.347.223a15.607,15.607,0,0,1-.98,1.355Zm1.763-2.732a15.749,15.749,0,0,0,.658-1.49l.386.147a16.27,16.27,0,0,1-.674,1.53Zm1.162-3.04c.14-.517.259-1.052.353-1.592l.407.07c-.1.553-.217,1.1-.361,1.63Zm.56-3.211c.045-.538.069-1.087.072-1.632l.413,0c0,.556-.027,1.116-.073,1.665Zm.006-3.46.411-.031.014.2-.411.026Z"/><path class="e" d="M314.464,177.916l-4.059.7,2.633,3.167Z"/><path class="e" d="M397.577,186.343l.268-.314c.415.354.844.7,1.274,1.037l-.253.326C398.43,187.053,398,186.7,397.577,186.343Zm-2.429-2.264.3-.289c.383.391.778.777,1.175,1.147l-.282.3C395.936,184.865,395.536,184.475,395.148,184.079ZM392.94,181.6l.321-.26c.349.43.707.851,1.063,1.252l-.308.274C393.655,182.46,393.293,182.033,392.94,181.6Zm-1.959-2.683.345-.227c.3.455.614.909.937,1.349l-.334.244C391.6,179.835,391.284,179.375,390.981,178.915Zm-1.692-2.858.365-.194c.258.487.528.969.8,1.433l-.355.21C389.822,177.038,389.549,176.55,389.288,176.057Zm23.155,18,.1-.4c.53.13,1.069.25,1.6.356l-.081.4C413.524,194.309,412.978,194.188,412.443,194.057Zm-3.186-.936.135-.39c.518.178,1.044.346,1.564.5l-.117.4C410.314,193.47,409.781,193.3,409.257,193.121Zm-3.085-1.23.171-.376c.5.228,1.013.445,1.511.643l-.153.383C407.2,192.341,406.682,192.122,406.172,191.891Zm-2.954-1.521.207-.358c.471.273.956.537,1.441.786l-.189.367C404.186,190.914,403.7,190.646,403.218,190.37Zm-2.793-1.8.239-.336c.449.32.906.629,1.359.921l-.223.347C401.342,189.21,400.879,188.9,400.425,188.573Zm-12.55-15.525.382-.157c.206.5.429,1.007.662,1.5l-.374.175C388.311,174.068,388.086,173.556,387.876,173.049Zm-1.124-3.127.4-.121c.157.512.332,1.037.519,1.558l-.389.139C387.088,170.971,386.912,170.441,386.752,169.922Zm-.834-3.216.4-.085c.11.525.236,1.063.376,1.6l-.4.1C386.158,167.781,386.03,167.237,385.918,166.706Zm-.541-3.279.41-.048c.064.535.141,1.082.231,1.627l-.408.067C385.52,164.521,385.44,163.968,385.377,163.427Zm-.231-3.082.413-.012c.012.422.034.894.07,1.409l-.411.03C385.18,161.25,385.158,160.772,385.146,160.344Z"/><path class="e" d="M383.722,160.808l1.673-2.837,1.621,2.868Z"/><path class="e" d="M391.3,193.667l.269-.313q.64.551,1.242,1.1l-.278.306Q391.93,194.215,391.3,193.667Zm-2.559-2.071.25-.329q.668.511,1.3,1.025l-.26.321Q389.4,192.1,388.737,191.6Zm-2.675-1.919.231-.343q.7.469,1.362.947l-.241.335Q386.754,190.144,386.062,189.678Zm-2.782-1.758.21-.356q.722.428,1.415.865l-.221.349Q384,188.343,383.28,187.92Zm-2.881-1.593.189-.367q.745.383,1.463.78l-.2.361Q381.139,186.709,380.4,186.327Zm-2.969-1.42.168-.377q.766.339,1.506.693l-.179.373Q378.192,185.244,377.43,184.907Zm-3.045-1.247.145-.386q.784.3,1.543.606l-.157.382Q375.163,183.953,374.385,183.66Zm-2.873-1,.126-.394q.675.215,1.333.442l-.134.39Q372.182,182.878,371.512,182.665Z"/><path class="e" d="M371.526,184.224l-2.226-2.43,3.217-.713Z"/><path class="h" d="M287.034,250.915c-1.774-4.8-7.885-6.966-13.651-4.837s-9,7.748-7.229,12.549c1.71,4.63,7.451,6.807,13.029,5.048l3.774,1.138.324-3.266C286.771,258.849,288.408,254.638,287.034,250.915Z"/><path class="i" d="M400.787,199.64s-5.248.324-6.4-.239-5.233-3.643-6.805-3.616a16.372,16.372,0,0,0-5.954,2.133c-1.511,1.142,2.676,2.361,5.134,1.961a1.279,1.279,0,0,1,1,.258c.844.668,2.632,1.986,3.752,2.1,1.505.152,8.474,2.915,8.474,2.915Z"/><path class="b" d="M447.581,183.14s-19.062,28.16-27.434,27.419c-4.131-.365-20.98-4.858-25.674-6.779,0,0-.671-1.448,1.4-4.992,0,0,18.992,1.971,22.853-.123,5.745-3.117,7.454-20.576,13.924-22.978S447.259,174.876,447.581,183.14Z"/><path class="j" d="M445.065,179.723s-1,33.991-8.461,37.853c-3.683,1.906-20.315,7.145-25.307,8.04,0,0-1.343-.863-1.494-4.965,0,0,17.089-8.517,19.226-12.354,3.179-5.711-4.737-21.366-.562-26.862S440.364,172.919,445.065,179.723Z"/><path class="k" d="M429.6,285.5s6.69,4.3,6.041,5.7c-.087.186-3.784,6.807-3.784,6.807l-4.768,8.426a3.141,3.141,0,0,1-1.057-3.9c.949-2.711,1.522-7.816-.909-11.136C422.57,287.894,429.6,285.5,429.6,285.5Z"/><path class="k" d="M420.437,302.169s2.6,7.514,1.23,8.21c-.182.093-7.181,3.014-7.181,3.014l-8.956,3.678a3.141,3.141,0,0,1,1.581-3.722c2.421-1.545,6.026-5.206,6.167-9.317C413.427,299.707,420.437,302.169,420.437,302.169Z"/><path class="l" d="M443.5,239.8c-.923,8.889-18.68,4.934-17.3,11.619.463,2.268,1.7,14.7,1.615,17.175.342,6.757-5.406,31.672-6.316,33.569-.821,1.78-6.376,4.083-9.707,4.6.122-10.434,2.68-49.687,2.542-60.531C424.138,237.217,448.675,208.216,443.5,239.8Z"/><path class="m" d="M425.8,293.741s4.709-4.373,5.446-7.079c0,0-17.228-20.642-20.965-25.268-.172-.212-.128-.446.1-.7,2.821-3.181,34.168-9.648,38.264-16.022a27.614,27.614,0,0,0,3.013-7.346c.929-3.889-.494-8.9-.494-8.9H426.2S397.01,246.53,394.058,257.6,425.8,293.741,425.8,293.741Z"/><path class="n" d="M410.382,260.693c2.821-3.181,34.168-9.648,38.264-16.022a19.759,19.759,0,0,0,2.647-6.1c1.612-3.435,1.11-7.241.118-11.132l-4.944,3.214s-11.569,14.681-22.744,19.035C413.257,253.763,410.591,259.792,410.382,260.693Z"/><path class="i" d="M427.738,179.6c6.523-.5,13.538-9.025,13.538-9.025s-3.719-1.693-7.093-6.9c-.171-.262-.336-.534-.5-.816l-3.3.4-3.178,5.664a41.6,41.6,0,0,0,2.257,4.4q.41.716.906,1.525A14.919,14.919,0,0,0,427.738,179.6Z"/><path class="b" d="M452.286,203.043c-.907,12.2,1.391,23.652.362,26.866-.888,2.773-11.041,2.409-15.08,1.483-4.809-1.367-15.608.49-15.327-3.214,1.635-3.156-1.441-6.992-1.219-11.214.123-3.92,3.693-11.682,3.939-15.732.921-12.887-1.73-21.755,4.7-26.946,1.711-1.382,7.825-.971,9.889-2.472,1.322-.758,1.3-2.791,1.73-2.472C447.018,173.771,455.367,185.163,452.286,203.043Z"/><path class="o" d="M436.085,230.9c-5.446.893-13.182.009-13.844-1.978-.742-2.225,2.619-5.246,2.719-7.911.126-2.647,9.234-5.928,9.394-9.147-.28-.37,8.4-31.324,8.405-31.643C442.759,180.218,450.8,210.913,436.085,230.9Z"/><path class="p" d="M427.207,168.923a41.6,41.6,0,0,0,2.257,4.4c3.978-2.971,4.627-7.7,4.719-9.645-.171-.262-.336-.534-.5-.816l-3.3.4Z"/><path class="i" d="M427.487,171.709s9.194-4.955,6.02-10.633-4.124-10.141-10.128-7.218-5.924,5.722-5.326,7.875S425.013,172.851,427.487,171.709Z"/><path class="e" d="M415.81,222.154l-25.716.549-7.311-22.5-.908.3,7.729,23.787,26.24-.56Z"/><path class="i" d="M415.318,224.977s-8.431,2.223-11.593,1.99-5.791-1.737-6.189-2.522-1.234-2.177.919-1.92,5.091.715,5.182.3-1.755-.374-1.755-.374-.558-.811.145-.841,2.752-.585,3.513-.2,1.464,1.786,2.02,1.727,7.055-2.927,7.055-2.927Z"/><path class="b" d="M445.18,180.3s-1,33.991-8.461,37.854c-3.683,1.906-20.315,7.145-25.307,8.039,0,0-1.343-.863-1.494-4.965,0,0,17.089-8.516,19.226-12.354,3.179-5.711-4.737-21.366-.562-26.862S440.478,173.492,445.18,180.3Z"/><path class="c" d="M305.828,294.726l38.189,3.88V250.234l-36.432,3.881Z"/><path class="b" d="M287.4,275.318a11.36,11.36,0,0,0-6.6,10.461c0,4.661,16.064,15.01,31.149,16.563s22.038-5.481,22.038-5.481-19.743-5.546-26.4-10.425S292.943,273.075,287.4,275.318Z"/><path class="o" d="M341.632,271.876s-.782-10.738-1.168-15.148c0,0,1.157,12.212-3.7,14.028s-29.895.91-29.895.91l-.1,3.741,32.268,1.575Z"/><path class="j" d="M348.141,302.342c3.786.392,4.986,1.058,5.921,2.392s-.718,4.936-2.961,5.6-11.224-2.25-14.137-2.925S348.141,302.342,348.141,302.342Z"/><path class="j" d="M313.426,309.017c-2.132,0-8.78,1.659-13.2,1.356s-5.637-1.828-5.485-4.876,2.273-4.724,7.384-3.96,8.918,1.674,8.918,1.674Z"/><path class="b" d="M315.125,315.273c-2.953.2-6.212-13.308-5.1-14.863s10.647-1.333,23.293-7.1,19.522-18.632,25.511-17.969,9.981,5.77,11.091,8.873-3.549,8.653-13.088,14.42S321.559,314.83,315.125,315.273Z"/><path class="o" d="M352.486,279.6c.67,3.422-1.333,5.014-6.428,8.652a40.5,40.5,0,0,1-7.511,4.574l-2.91-5.7Z"/><g class="q"><path class="o" d="M283.68,277.748a10.664,10.664,0,0,1,3.718-2.43c5.546-2.242,13.531,6.236,20.187,11.118l-2.016,3.482C297.8,287.353,284.519,279.4,283.68,277.748Z"/></g><path class="i" d="M342.1,273.171c1.735.224,8.155,1.118,10.136,1.236a33.3,33.3,0,0,1-.494,6.922c-.872,2.615-11.251,9.312-11.251,9.312s-5.253-3.341-6.512-6.975l8.571-7.382Z"/><path class="c" d="M326.224,236.676c4.658,2.663,9.081,3.849,14.8,6.526,4.643,2.174,6.7,6.08,8.31,11.988,1.4,5.118,3.613,13.709,3.826,19.739a38.6,38.6,0,0,1-6.315-1.017c-1.612-.372-4.136-.6-5.749-.8l-.631-13.733-20.1-3.2V236.549Z"/><path class="c" d="M300.077,270.2c-2.735-2.3-9.641-2.719-11.125-5.933,1.141-1.592,3.507-4.893,4.7-6.922,4.364-7.415,7.047-10.716,11.125-13.1,3.585-2.1,10.645-5.952,11.954-7.7h3.635v19.632l-9.82,2.56S300.942,269.252,300.077,270.2Z"/><path class="i" d="M299.335,269.462a43.176,43.176,0,0,0-3.4,4.166s8.482,10.337,10.907,10.325,5.525-.145,6.834.728,7.416,5.236,5.526,5.389-.582-.737-5.817-.153-4.507-.584-7.271-1.892a91.362,91.362,0,0,1-9.888-4.653c-5.816-3.2-10.178-7.417-10.614-10.613-.313-2.285,1.617-2.892,4.578-7.005C293.9,266.5,296.121,267.979,299.335,269.462Z"/><path class="i" d="M325.764,236.05c1.125,1.088,1.616,2.71-.059,5.755-1.386,2.52-7.051,3.462-9.432.637-1.442-1.711-1.668-4.049-.869-5.361C317.372,233.852,325.764,236.05,325.764,236.05Z"/><path class="e" d="M341.023,295.775l3.422-19.608a1.231,1.231,0,0,0-1.213-1.442H303.193a1.231,1.231,0,0,0-1.2,1.5l4.388,19.549Z"/><g class="r"><path class="s" d="M341.3,294.169l-.281,1.606H306.378l-.36-1.606Z"/></g><path class="f" d="M319.57,284.705c0,1.126,1.614,2.04,3.606,2.04s3.606-.914,3.606-2.04-1.614-2.04-3.606-2.04S319.57,283.579,319.57,284.705Z"/><g class="t"><path class="f" d="M312.618,274.726l18.583,21.05h-5.625l-15.318-21.05Z"/></g><g class="t"><path class="f" d="M307.662,274.726l13.068,21.05h-3.265l-11.446-21.05Z"/></g><path class="p" d="M315.249,237.34c1.878-3.281,10.327-1.315,10.327-1.315a2.685,2.685,0,0,1,.844,1.916c-.683,1.223-4.654,4.882-11.042,2.83A4.141,4.141,0,0,1,315.249,237.34Z"/><path class="i" d="M312.63,217.961c1.794-2.268,4.841-3.216,7.2-3.4,2.368-.059,5.5.57,7.516,2.638s1.723,9.135,1.374,11.326-.534,4.9-1.663,7.331a6.764,6.764,0,0,1-12.218.633c-1.37-2.3-1.836-4.976-2.409-7.121S310.838,220.227,312.63,217.961Z"/><path class="u" d="M328.947,220.13s-1.266,1.42-5.129.111-8.481-1.81-10.378,1.322c0,0-2.959-1.434-2.233-4.025s5.774-6.048,12.275-4.453S330.921,218.341,328.947,220.13Z"/><ellipse class="i" cx="2.876" cy="1.106" rx="2.876" ry="1.106" transform="matrix(0.108, -0.994, 0.994, 0.108, 327.563, 230.041)"/><ellipse class="i" cx="1.106" cy="2.876" rx="1.106" ry="2.876" transform="matrix(0.976, -0.216, 0.216, 0.976, 310.532, 226.601)"/><path class="u" d="M329.6,224.608s-1.122.144-1.446,3-.645,1.71-.965.562.371-7.524-.365-8.939,2.209.009,3.093-.027C330.983,219.162,330.309,223.1,329.6,224.608Z"/><path class="u" d="M313.487,221.122s-.3-3.37-2.032-1.778-1.108,6.11-.716,6.6.315-.856,1.349,1.926.749,3.468,1.391,2.623c.334-.44-1.288-2.987-.665-5.214C313.177,223.981,313.7,221.145,313.487,221.122Z"/><path class="o" d="M341.023,295.775c-2.484.838-24.515,3.2-34.645,0Z"/><path class="v" d="M471.153,315.325c-4.023-4.11-11.11-6.939-19.3-7.272V294.465H464.5c.313,0,.593-.273.771-.695a2.784,2.784,0,0,0,.2-1.061V292.1c0-.965-.436-1.755-.969-1.755H451.856V257.976a1.63,1.63,0,0,0-1.625-1.625h0a1.63,1.63,0,0,0-1.625,1.625v32.365H435.957c-.533,0-.968.79-.968,1.755v.613a2.753,2.753,0,0,0,.211,1.09c.178.405.452.666.758.666h12.649v13.589c-8.187.333-15.274,3.162-19.3,7.272q-.439.448-.826.914h43.5C471.721,315.927,471.445,315.623,471.153,315.325Z"/><path class="n" d="M451.856,308.113a18.659,18.659,0,0,0-13.463,7.211q-.325.448-.611.914h-4.024q.287-.467.611-.914c3.171-4.38,8.915-7.3,15.475-7.3Q450.864,308.02,451.856,308.113Z"/><rect class="b" width="46.975" height="12.066" rx="1.951" transform="translate(426.181 245.47)"/><path class="h" d="M373.468,139.431a12.026,12.026,0,1,0,12.026-11.978A12,12,0,0,0,373.468,139.431Z"/><path class="h" d="M383.477,142.721l.811-2.014a1.571,1.571,0,0,1,1.069-2.659l2.414-6c.084-.207.4-.275.7-.152s.483.387.4.593l-2.4,5.958a1.572,1.572,0,0,1-1.047,2.751c-.019,0-.037-.006-.057-.006l-.792,1.97c-.082.206-.4.273-.7.153S383.4,142.927,383.477,142.721Z"/><path class="f" d="M383.726,143.688a.907.907,0,0,1-.623-1.117l.721-1.792a1.974,1.974,0,0,1,1.248-3.1l2.324-5.78a.931.931,0,0,1,1.224-.374,1.1,1.1,0,0,1,.61.563.717.717,0,0,1,.012.554l-2.3,5.717a1.973,1.973,0,0,1-1.3,3.234l-.693,1.723a.794.794,0,0,1-.773.466h0A1.23,1.23,0,0,1,383.726,143.688Zm1.371-2.9h.272a.169.169,0,0,1,.057.005,1.177,1.177,0,0,0,1.176-1.175,1.158,1.158,0,0,0-.4-.872l-.211-.188,2.484-6.177a.366.366,0,0,0-.159-.113.333.333,0,0,0-.194-.028l-2.492,6.2-.259.011a1.169,1.169,0,0,0-.8,1.978l.179.187-.889,2.211a.36.36,0,0,0,.158.114.346.346,0,0,0,.193.028Z"/><path class="f" d="M372.312,139.66a13.074,13.074,0,1,0,15.695-12.811,1.463,1.463,0,0,0,.015-.159,1.358,1.358,0,0,0-1.358-1.358h-.032l.017-1.113.845.013a1.578,1.578,0,1,0,.048-3.155l-4.344-.07a1.579,1.579,0,0,0-.049,3.158l.954.015-.02,1.153h-.055a1.358,1.358,0,0,0-1.358,1.358,1.227,1.227,0,0,0,.019.176A13.079,13.079,0,0,0,372.312,139.66Zm2.231,0A10.844,10.844,0,1,1,385.387,150.5,10.844,10.844,0,0,1,374.543,139.66Z"/><path class="e" d="M371.909,139.66a13.534,13.534,0,0,1,10.363-13.114,1.766,1.766,0,0,1,1.414-1.583l.006-.386-.551-.009a1.982,1.982,0,0,1,.062-3.963h0l4.343.07a1.981,1.981,0,0,1,1.952,2.012,2,2,0,0,1-2.012,1.949h0l-.443-.007-.006.342a1.766,1.766,0,0,1,1.378,1.557,13.479,13.479,0,1,1-16.508,13.133Zm14.313-13.925.03-1.925,1.269.02a1.175,1.175,0,0,0,.014-2.35l-4.36-.07a1.176,1.176,0,0,0-.02,2.352l1.357.021-.033,1.952h-.451a.956.956,0,0,0-.955.955.872.872,0,0,0,.014.121l.051.372-.367.077a12.672,12.672,0,1,0,5.155-.016l-.364-.116.05-.374a.423.423,0,0,0,.007-.065.965.965,0,0,0-.988-.955ZM374.14,139.66a11.246,11.246,0,1,1,11.247,11.247A11.259,11.259,0,0,1,374.14,139.66Zm.805,0a10.441,10.441,0,1,0,10.442-10.439A10.454,10.454,0,0,0,374.945,139.66Z"/><path class="f" d="M385.386,132.238a.4.4,0,0,0,.4-.4v-1.493a.4.4,0,1,0-.805,0v1.493A.4.4,0,0,0,385.386,132.238Z"/><path class="f" d="M385.386,149.356a.4.4,0,0,0,.4-.4v-1.492a.4.4,0,0,0-.805,0v1.492A.4.4,0,0,0,385.386,149.356Z"/><path class="f" d="M376.082,140.05h1.492a.4.4,0,1,0,0-.805h-1.492a.4.4,0,0,0,0,.805Z"/><path class="f" d="M391.966,146.629a.4.4,0,0,0,.285-.687l-1.055-1.055a.4.4,0,0,0-.57.57l1.055,1.055A.4.4,0,0,0,391.966,146.629Z"/><path class="f" d="M379.862,134.526a.4.4,0,0,0,.285-.687l-1.056-1.055a.4.4,0,0,0-.57.57l1.056,1.055A.4.4,0,0,0,379.862,134.526Z"/><path class="f" d="M378.806,146.629a.4.4,0,0,0,.285-.118l1.055-1.055a.4.4,0,0,0-.57-.57l-1.055,1.055a.4.4,0,0,0,.285.687Z"/><path class="f" d="M390.91,134.525a.4.4,0,0,0,.285-.118l1.055-1.054a.4.4,0,0,0-.57-.57l-1.055,1.054a.4.4,0,0,0,.285.688Z"/><ellipse class="h" cx="6.492" cy="6.486" rx="6.492" ry="6.486" transform="matrix(0.001, -1, 1, 0.001, 369.371, 153.431)"/><path class="e" d="M369.068,147.052a6.846,6.846,0,1,0,6.847-6.848A6.846,6.846,0,0,0,369.068,147.052Zm2.236-2.808.52-.459a.3.3,0,0,1,.414,0l3.622,4.107,2.828-2.494a.294.294,0,0,1,.406.057l.517.587a.292.292,0,0,1,.006.409l-3.062,2.7-.264.235-.257.226a.293.293,0,0,1-.412,0l-4.371-4.957A.294.294,0,0,1,371.3,144.244Z"/><path class="f" d="M368.665,147.052a7.249,7.249,0,1,1,7.25,7.247A7.258,7.258,0,0,1,368.665,147.052Zm.805,0a6.444,6.444,0,1,0,6.444-6.445A6.45,6.45,0,0,0,369.47,147.052Zm5.849,2.825-4.367-4.954a.649.649,0,0,1-.165-.476.738.738,0,0,1,.25-.505l.523-.461a.714.714,0,0,1,.98.036l3.355,3.805,2.529-2.23a.712.712,0,0,1,.972.1l.515.584a.735.735,0,0,1,.19.48.658.658,0,0,1-.217.5l-3.582,3.159a.736.736,0,0,1-.486.186A.657.657,0,0,1,375.319,149.877Zm3.533-4.088-3.028,2.67-3.8-4.312-.382.338,4.2,4.761,3.411-3.008Z"/><path class="e" d="M362.359,170.436a2.688,2.688,0,0,1-.328.318c-.742.631-2.83,1.98-7.11,1.98a19.239,19.239,0,0,1-6.7-.969,4.96,4.96,0,0,1-.739-.332s-1.061-2.73,3.005-2.349,6.335,1.844,8.014,1.156S362.915,169.346,362.359,170.436Z"/><path class="e" d="M362.032,170.754c-.742.631-2.83,1.98-7.11,1.98a19.239,19.239,0,0,1-6.7-.969l0,0s-1.8-2.529,2.269-2.148,6.256,1.5,8,1.019C360.1,170.188,362.179,169.822,362.032,170.754Z"/><path class="e" d="M364.717,176.41a.389.389,0,0,0-.46.061c-.865.881-2.3.718-4.067-.275l-.007,0a2.751,2.751,0,0,0-1.926-.295v1.065a3.488,3.488,0,0,1,1.282.577c.02.014.041.03.062.048.619.516,1.473,2.3,2.556,2.958a2.372,2.372,0,0,0,2,.246.36.36,0,0,0-.211-.687c-1.2.311-2.351-.581-3.343-2.359a2.7,2.7,0,0,0-.6-.742,2.79,2.79,0,0,0-.614-.4,4.849,4.849,0,0,1,.676.239,8.623,8.623,0,0,0,2.913.926,2.371,2.371,0,0,0,1.833-.83.355.355,0,0,0,.08-.225A.362.362,0,0,0,364.717,176.41Z"/><path class="e" d="M360.19,176.2l-.007,0a2.749,2.749,0,0,0-1.926-.295v1.064a3.486,3.486,0,0,1,1.282.577c.02.014.041.03.062.048a1.843,1.843,0,0,0,.4-.584,2.79,2.79,0,0,0-.614-.4,4.849,4.849,0,0,1,.676.239A2.658,2.658,0,0,0,360.19,176.2Z"/><path class="h" d="M362.359,170.436a9.572,9.572,0,0,1-4.449,6.176,8.3,8.3,0,0,1-4.314.3,2.811,2.811,0,0,1-1.2-.7s-4.117-3.121-4.914-4.781c0,0,.514-1.271,3.586-1.361a7.525,7.525,0,0,1,1.772.2C355.293,170.79,358.221,172.028,362.359,170.436Z"/><path class="f" d="M361.863,170.89s-.909,3.136-2.669,4.152a2.724,2.724,0,0,1-.889-.275S360.239,173.99,361.863,170.89Z"/><path class="h" d="M355.617,206.405c-14.819,0-15.047-11.219-10.423-18.19a136.784,136.784,0,0,0,7.287-12.2l.381.064a15.386,15.386,0,0,0,1.694.19h0a15.481,15.481,0,0,0,3.8-.254s.764,1.309,2.106,3.489,3.262,5.231,5.574,8.716a15.691,15.691,0,0,1,2.632,7.528h0C369.008,201.241,365.671,206.405,355.617,206.405Z"/><path class="f" d="M358.388,177.767s4.47,6.5,7.1,10.973c2.223,3.779,3.052,7.615.968,10.293,0,0,1.508-4.009-1.694-10.028C363.28,186.223,359.355,181.019,358.388,177.767Z"/><path class="f" d="M358.686,196.205v1.475h-1.937v-1.406a7.851,7.851,0,0,1-3.356-.937l1.019-2.312a6.454,6.454,0,0,0,3.1.857c.9,0,1.222-.189,1.222-.512,0-1.182-5.2-.224-5.2-3.73,0-1.518,1.1-2.8,3.321-3.106V185.09h1.829v1.416a7.021,7.021,0,0,1,2.774.777l-.952,2.3a5.8,5.8,0,0,0-2.62-.7c-.927,0-1.222.27-1.222.592,0,1.129,5.2.183,5.2,3.649C361.87,194.577,360.823,195.841,358.686,196.205Z"/><path class="e" d="M365.714,203.436c-2.071,1.808-5.329,2.969-10.1,2.969-14.819,0-15.047-11.219-10.423-18.19a136.784,136.784,0,0,0,7.287-12.2l.381.064q.3.051.6.09.543.069,1.089.1h0a24.633,24.633,0,0,1-4.038,12.019c-3.8,5.3-3,11.517,4.917,13.106,5.5,1.1,13.564-.625,13.237-5.646h0A9.111,9.111,0,0,1,365.714,203.436Z"/><path class="w" d="M352.875,170.273v-.008S352.875,170.271,352.875,170.273Z"/><path class="e" d="M354.58,176.05c.088-1.4-1.968-1.86-2.983-3.552-1.061-1.768,1.245-2.2,1.245-2.2a7.527,7.527,0,0,0-1.772-.2,7.119,7.119,0,0,0-2.266.382,2.168,2.168,0,0,0-1.32.979c.679,1.416,3.772,3.892,4.669,4.592Z"/><path class="e" d="M359.142,176.407a.657.657,0,0,1-.223.5,12.322,12.322,0,0,0-7.04.192,1.081,1.081,0,0,1-.195-.677,1.129,1.129,0,0,1,.18-.54,14.854,14.854,0,0,1,7.1.017A.949.949,0,0,1,359.142,176.407Z"/><path class="e" d="M359.142,176.407a.657.657,0,0,1-.223.5,12.322,12.322,0,0,0-7.04.192,1.081,1.081,0,0,1-.195-.677A14.014,14.014,0,0,1,359.142,176.407Z"/><path class="e" d="M359.4,175.861a.523.523,0,0,1-.434.166,11.643,11.643,0,0,0-7.1-.017.582.582,0,0,1-.393-.2.46.46,0,0,1-.09-.279,12.984,12.984,0,0,1,8.1.05A.418.418,0,0,1,359.4,175.861Z"/><path class="e" d="M359.4,175.861a.523.523,0,0,1-.434.166,11.643,11.643,0,0,0-7.1-.017.582.582,0,0,1-.393-.2A12.954,12.954,0,0,1,359.4,175.861Z"/><path class="b" d="M490.422,303.984a6.578,6.578,0,0,0-.426-4.1c-1.587-3.492.442-4.65,3.065-6.423s2.226-5.283-.42-7.7.514-5.5-1.753-9.51-6.325-.149-6.5,4.034c-.123,3.007-3.989,3.192-4.579,7.184-.513,3.466,4.149,5.565-.185,8.033a4.3,4.3,0,0,0-2.1,3.53A6.822,6.822,0,0,0,479,303.984Z"/><path class="x" d="M484.391,303.984l3.908-22.3a.358.358,0,0,0-.705-.123l-3.93,22.421Z"/><path class="j" d="M501.356,303.984a8.093,8.093,0,0,0,.04-.941c-.082-4.883,2.875-5.207,6.837-5.948s5.279-5.042,3.417-9.21,3.39-6.163,2.775-12-7.312-3.381-9.633,1.417c-1.668,3.45-6.278,1.7-8.992,6.068-2.357,3.788,2.023,8.6-4.291,9.289a5.479,5.479,0,0,0-4.249,3.056,8.749,8.749,0,0,0-.119,8.267Z"/><path class="x" d="M493.433,303.984l15.214-23.061a.456.456,0,1,0-.761-.5l-15.544,23.562Z"/><path class="u" d="M415.556,161s2.347,2.8,3.789-.463c.936-2.115,0-2.775,1.267-3.091,1.215.418,2.457.963,2.933,1.96.969,2.027,2.127,5.978,5.774,2.121.724,2.887.906,6.482,4.73,5.438s6.636-1.22,6.46-4.033-1.407-8.577-4.992-9.267a4.139,4.139,0,0,1-3.389-3.806c-.168-3.322-7.7-4.948-8.839-.64s-.787-.776-3.132-.759-4.806,1.839-3.854,3.865-1.45,1.9-3.451,2.285C409.917,155.174,412.36,162.35,415.556,161Z"/></g></svg>